<svg id="Layer_1" data-name="Layer 1" xmlns="http://www.w3.org/2000/svg" width="712.13" height="151.27" viewBox="0 0 712.13 151.27"><defs><style>.cls-1{fill:#fff;}.cls-1,.cls-2,.cls-3,.cls-4,.cls-5{stroke:#000;stroke-miterlimit:10;}.cls-2{fill:#91b969;}.cls-3{fill:#23af3d;}.cls-4{fill:#1db745;}.cls-5{fill:#1f9919;}</style></defs><title>logogore12345</title><path class="cls-1" d="M355.25,66.64" transform="translate(-12.32 -0.06)"/><path class="cls-2" d="M354,66.8C339.47,63.58,336.53,39,333.51,22.37c7.25,30.51,14.25,43.4,25,45Z" transform="translate(-12.32 -0.06)"/><path class="cls-2" d="M351.27,59.56c-4.49-1-5.4-8.56-6.33-13.69,2.24,9.4,4.39,13.37,7.69,13.86Z" transform="translate(-12.32 -0.06)"/><path class="cls-2" d="M355.65,64.7c6.06-13.63-11.93-30.59-23.54-42.92,20.23,24,26.44,37.26,21.36,46.82Z" transform="translate(-12.32 -0.06)"/><path class="cls-2" d="M380.59,66.14c-5.24-14,13.74-29.82,26.07-41.42C385,47.41,378,60.31,382.53,70.16Z" transform="translate(-12.32 -0.06)"/><path class="cls-2" d="M385.15,59.86c-1.61-4.3,4.24-9.18,8-12.75-6.66,7-8.81,11-7.43,14Z" transform="translate(-12.32 -0.06)"/><path class="cls-2" d="M383.22,66.34C398,64,402.38,39.67,406.39,23.22c-9.07,30-16.84,42.47-27.62,43.41Z" transform="translate(-12.32 -0.06)"/><path class="cls-1" d="M356,67.77Z" transform="translate(-12.32 -0.06)"/><path class="cls-1" d="M356,67.37" transform="translate(-12.32 -0.06)"/><path class="cls-1" d="M369.82.56" transform="translate(-12.32 -0.06)"/><line class="cls-1" x1="357.5" y1="0.5" x2="357.5" y2="0.5"/><path class="cls-1" d="M427.78,78.88" transform="translate(-12.32 -0.06)"/><path class="cls-2" d="M442.51,29a67.59,67.59,0,0,1-12.07,7.17c-8,3.65-12.13,3.68-16.42,5.65-5.27,2.44-11.66,8.27-15.84,23.49,4.33-11.51,10.23-16.81,15-19.51,5.16-2.92,9.26-2.93,16.71-7.12A56.63,56.63,0,0,0,442.51,29Z" transform="translate(-12.32 -0.06)"/><path class="cls-2" d="M402.9,61.17c-.17-.17,1.79-2.4,3-3.7a61.4,61.4,0,0,1,8.61-8c7.77-5.49,17.59-5.29,17.71-4.75s-7.87.91-17.06,6.6C408,55.71,403.17,61.44,402.9,61.17Z" transform="translate(-12.32 -0.06)"/><path class="cls-2" d="M392.92,74.05a98.84,98.84,0,0,1,11.19-8,81.62,81.62,0,0,1,8.67-4.71c2.11-1,3.15-1.36,4.37-1.89a49.35,49.35,0,0,0,13-8.69c5.94-5.68,8.78-12.18,8.45-12.4S434.88,44.71,427.29,51c-4.7,3.86-6.76,4.11-13.93,8.3A123.33,123.33,0,0,0,392.92,74.05Z" transform="translate(-12.32 -0.06)"/><path class="cls-2" d="M391.07,77.3a166.84,166.84,0,0,1,18.44-9.12q3.89-1.62,7.6-3c6.89-2.43,15.34-6.7,21.91-14.7,9.19-11.19,10.69-24.8,10.87-24.75s-.84,7.28-5.82,14.85c-1.55,2.35-4.11,5.69-10,10.49-7.58,6.17-13.4,8.83-21.26,13.1C407.43,67.12,399.91,71.44,391.07,77.3Z" transform="translate(-12.32 -0.06)"/><path class="cls-2" d="M422.51,64c.33.7,21.78-4.83,26.75-17.68.43-1.11.71-2.2,2.75-8.05,3-8.44,4.54-12.34,4.29-12.45s-2.42,4.72-6.3,11.69c-1.65,3-4.4,7.92-6.66,11.1C435,60.4,422.26,63.45,422.51,64Z" transform="translate(-12.32 -0.06)"/><path class="cls-2" d="M296.38,28.44a67.74,67.74,0,0,0,12.08,7.17c8,3.66,12.13,3.68,16.41,5.66,5.28,2.43,11.67,8.26,15.85,23.48-4.34-11.5-10.23-16.81-15-19.51-5.16-2.91-9.25-2.92-16.71-7.11A56.86,56.86,0,0,1,296.38,28.44Z" transform="translate(-12.32 -0.06)"/><path class="cls-2" d="M336,60.66c.16-.17-1.79-2.39-3-3.7a61.62,61.62,0,0,0-8.62-8.05c-7.76-5.49-17.59-5.28-17.71-4.75s7.88.91,17.07,6.6C330.93,55.2,335.73,60.93,336,60.66Z" transform="translate(-12.32 -0.06)"/><path class="cls-2" d="M346,73.54a101.54,101.54,0,0,0-11.19-8,83.65,83.65,0,0,0-8.68-4.71c-2.11-1-3.14-1.36-4.36-1.89a49.35,49.35,0,0,1-13-8.69c-5.94-5.68-8.78-12.17-8.46-12.4S304,44.21,311.6,50.44c4.71,3.87,6.76,4.12,13.94,8.3A123.33,123.33,0,0,1,346,73.54Z" transform="translate(-12.32 -0.06)"/><path class="cls-2" d="M347.83,76.8a165.08,165.08,0,0,0-18.44-9.13c-2.59-1.08-5.13-2.07-7.6-3C314.9,62.28,306.45,58,299.88,50,290.69,38.82,289.19,25.2,289,25.26s.84,7.27,5.82,14.85c1.55,2.34,4.11,5.68,10,10.48,7.58,6.17,13.4,8.84,21.26,13.1C331.47,66.62,339,70.93,347.83,76.8Z" transform="translate(-12.32 -0.06)"/><path class="cls-2" d="M316.38,63.48c-.33.7-21.77-4.83-26.74-17.67-.43-1.12-.71-2.21-2.75-8.05-3-8.45-4.54-12.35-4.29-12.46S285,30,288.89,37c1.66,3,4.41,7.91,6.67,11.09C304,59.9,316.64,62.94,316.38,63.48Z" transform="translate(-12.32 -0.06)"/><path class="cls-3" d="M448.24,38.28" transform="translate(-12.32 -0.06)"/><path class="cls-2" d="M366.24,84.25a108.7,108.7,0,0,1-5.68-24.07c-3.83-32.43,8.95-58.64,9.54-58.48s-7.48,19.05-7.61,47.62A158.83,158.83,0,0,0,366.24,84.25Z" transform="translate(-12.32 -0.06)"/><path class="cls-2" d="M371.44,83.62a108.65,108.65,0,0,0,5.69-24.07C381,27.12,368.18.91,367.58,1.07s7.48,19.05,7.62,47.62A158.13,158.13,0,0,1,371.44,83.62Z" transform="translate(-12.32 -0.06)"/><path class="cls-2" d="M370.38,72.85A31.25,31.25,0,0,0,373.27,64c2-12-4.55-21.65-4.85-21.59s3.8,7,3.87,17.58A43.14,43.14,0,0,1,370.38,72.85Z" transform="translate(-12.32 -0.06)"/><path class="cls-2" d="M366.86,72.85A31.56,31.56,0,0,1,364,64c-1.94-12,4.56-21.65,4.86-21.59S365,49.41,365,60A43.14,43.14,0,0,0,366.86,72.85Z" transform="translate(-12.32 -0.06)"/><path class="cls-4" d="M346.55,66.07" transform="translate(-12.32 -0.06)"/><path class="cls-2" d="M430.52,84.15c16.1-6,26.47-5,32.29-3.56,2.64.66,8.5,2.45,9.13,2.64,10.12,3.1,12.36,4.34,18.69,6.2,10.79,3.17,18,3.59,18,3.86s-12.67,0-28.13-4c-11-2.82-12.68-4.69-20.51-6.2A68.81,68.81,0,0,0,430.52,84.15Z" transform="translate(-12.32 -0.06)"/><path class="cls-2" d="M462.1,76.84A49.05,49.05,0,0,0,496,84.45a170.67,170.67,0,0,1-18.89-3.35C471.68,79.82,466.67,78.36,462.1,76.84Z" transform="translate(-12.32 -0.06)"/><path class="cls-2" d="M480.07,68.3a18.6,18.6,0,0,1,6.19-10.41c7.68-6.33,17.53-3.29,18.28-3A27.21,27.21,0,0,0,480.07,68.3Z" transform="translate(-12.32 -0.06)"/><path class="cls-2" d="M485.86,65.67a10.19,10.19,0,0,0,14.72-6.81,31.83,31.83,0,0,1-14.72,6.81Z" transform="translate(-12.32 -0.06)"/><path class="cls-2" d="M482,68.51c2.05,1,9.13,4,16.55,1.22C508.48,66,512,54.56,511.44,54.19s-4.62,9.16-14.52,13.1A27.26,27.26,0,0,1,482,68.51Z" transform="translate(-12.32 -0.06)"/><path class="cls-2" d="M562.73,149.06c2.11-.85,9.14-4,12.15-11.3,4-9.81-2-20.16-2.6-20s3.56,9.61-.29,19.55A27.4,27.4,0,0,1,562.73,149.06Z" transform="translate(-12.32 -0.06)"/><path class="cls-2" d="M560.4,145.57c1.83-1.35,7.85-6.14,8.93-14,1.45-10.51-7-19-7.55-18.73s5.86,8.42,4.64,19A27.4,27.4,0,0,1,560.4,145.57Z" transform="translate(-12.32 -0.06)"/><path class="cls-2" d="M574.14,144.5c1.32-.76,5.69-3.49,7-8.62,1.77-6.88-3.19-13.19-3.6-13s3.26,6,1.64,13A18.29,18.29,0,0,1,574.14,144.5Z" transform="translate(-12.32 -0.06)"/><path class="cls-2" d="M581.94,141.58a10.8,10.8,0,0,0,5-6.46c1.19-5.08-2.55-9.65-2.85-9.53s2.49,4.4,1.41,9.53A13.52,13.52,0,0,1,581.94,141.58Z" transform="translate(-12.32 -0.06)"/><path class="cls-2" d="M487.18,72.88c11.76,4.42,20.54,7.81,26.63,10.19,3.78,1.48,8.67,3.4,15.5,5.65a125.17,125.17,0,0,0,12.09,3.65c6.91,1.48,22.84,4.87,37.46-2.94a30.34,30.34,0,0,0,12-10.36c1.6-2.46,6.93-10.69,3.56-19-.48-1.18-2.45-6.41-7.41-8.22-7-2.57-16.29,3.1-18.69,10.66-.24.77-2.31,7.68,2.14,12.79a12.51,12.51,0,0,0,7.1,4A13.25,13.25,0,0,1,572.47,75c-.62-.87-4.12-6-1.73-11.88a12,12,0,0,1,10-7.31c.69-.06,6.21-.42,9.14,3.35,3.51,4.51.49,11.31-.71,14a25.29,25.29,0,0,1-7.62,9.44c-2.32,1.84-8,5.76-20,7.21a73.6,73.6,0,0,1-25.08-1.42A296.61,296.61,0,0,1,487.18,72.88Z" transform="translate(-12.32 -0.06)"/><path class="cls-2" d="M535.2,83a13,13,0,0,0,19.7,1.32c5-4.91,3.87-11.65,3.76-12.29a15.22,15.22,0,0,1-9.34,12.49C542.09,87.48,535.74,83.39,535.2,83Z" transform="translate(-12.32 -0.06)"/><path class="cls-2" d="M528.4,79.72A13,13,0,0,0,548.1,81c4.95-4.91,3.87-11.66,3.75-12.29a15.25,15.25,0,0,1-9.34,12.49C535.29,84.16,528.93,80.07,528.4,79.72Z" transform="translate(-12.32 -0.06)"/><path class="cls-2" d="M516,77.45a13,13,0,0,0,19.7,1.32c4.95-4.91,3.87-11.66,3.76-12.29A15.25,15.25,0,0,1,530.13,79C522.9,81.89,516.55,77.8,516,77.45Z" transform="translate(-12.32 -0.06)"/><path class="cls-2" d="M369.39,106.49s1.49-1.15,3.31-2.81c4.19-3.86,6.36-7.2,9.08-11a117.56,117.56,0,0,1,8.11-10.45c5.93-6.36,13.05-8.82,18.49-10.57,19.05-6.15,36.46-2.6,36.45-2.44a66.47,66.47,0,0,0-24.77.92c-3.21.72-18.1,4.25-27.21,13.09-.61.6-3.63,3.57-7.31,7.62-3.86,4.24-4,4.74-6.5,7.31A74.43,74.43,0,0,1,369.39,106.49Z" transform="translate(-12.32 -0.06)"/><path class="cls-2" d="M369,110s1.46-1.22,2.55-2.17a72.75,72.75,0,0,0,10-10.93,77.34,77.34,0,0,1,13.3-13.81A56.06,56.06,0,0,1,413,74c9.39-2.78,17.33-2.44,17.36-2.13s-7.67.71-18.17,4.37a57.77,57.77,0,0,0-10.86,4.87A59.4,59.4,0,0,0,392,88c-1.57,1.37-3.44,3.27-7.11,7-5.63,5.73-5.82,6.14-8.45,8.6C372.56,107.27,369,110,369,110Z" transform="translate(-12.32 -0.06)"/><path class="cls-2" d="M369.6,111.26a124.42,124.42,0,0,1,45.28-31.07,121.62,121.62,0,0,1,50.06-8.53c9.08.44,22.41,1.22,37.57,8.63a84.82,84.82,0,0,1,23.66,17.26,114.4,114.4,0,0,0-44.38-20c-29.38-6.17-52.81,1.33-62.24,4.36A134,134,0,0,0,369.6,111.26Z" transform="translate(-12.32 -0.06)"/><path class="cls-2" d="M373.57,113.33a92.4,92.4,0,0,1,26.25-16.68c15.27-6.37,28.43-6.92,42.52-7.51A190.87,190.87,0,0,1,478,91a139,139,0,0,0-43.34-4.43c-10.5.61-21.35,1.33-34.08,7A80.15,80.15,0,0,0,373.57,113.33Z" transform="translate(-12.32 -0.06)"/><path class="cls-2" d="M390.66,108.49a82.23,82.23,0,0,1,8-2.26c6.15-1.4,9-1.29,12.15-3.5A14.1,14.1,0,0,0,415,98.09a20.36,20.36,0,0,1-6.59,4.43c-3.4,1.4-5.43,1.1-9.47,2.26A32.9,32.9,0,0,0,390.66,108.49Z" transform="translate(-12.32 -0.06)"/><path class="cls-2" d="M381.29,111.48c6.71,1.58,15.56,2.48,24.71-.62C420.15,106.06,428.34,94,428.34,94a46.25,46.25,0,0,1-15.24,11.84,54,54,0,0,1-14,4.53A66.84,66.84,0,0,1,381.29,111.48Z" transform="translate(-12.32 -0.06)"/><path class="cls-2" d="M372,113.4c0,.11,8,3.88,19.06,4.11a49.09,49.09,0,0,0,10.92-1c1.88-.39,3.78-.91,12.34-4.31s9.52-4,14.07-5.67a129.62,129.62,0,0,1,12.41-3.91c8.41-2.11,14.88-2.44,23.36-2.83a199.07,199.07,0,0,1,23.17.29,133,133,0,0,0-27.66-2.25,102.11,102.11,0,0,0-15.35,1.57,104,104,0,0,0-16.32,4.2c-4.37,1.55-3.55,1.63-16.42,7.14-7.38,3.15-9.9,4.09-13.49,4.78a48,48,0,0,1-10.85.79A50.93,50.93,0,0,1,372,113.4Z" transform="translate(-12.32 -0.06)"/><path class="cls-2" d="M405.24,118.39A49.82,49.82,0,0,0,420.61,114c1.43-.68,1.45-.77,3.16-1.59A73.22,73.22,0,0,1,439,107.18a89.35,89.35,0,0,1,12.47-1.73c3.76-.36,8.88-.74,15-.84a98.34,98.34,0,0,0-21.7.29A69.32,69.32,0,0,0,429,108.42c-2.72,1-3.89,1.6-8.72,3.73C416.11,114,411.06,116.11,405.24,118.39Z" transform="translate(-12.32 -0.06)"/><path class="cls-2" d="M375.72,121.13c0,.41,20.84,3.39,41.34,1.17a117.42,117.42,0,0,0,14.49-2.56c9-2.1,13.59-4.16,21.92-6.92A237.33,237.33,0,0,1,477,106.37a188.34,188.34,0,0,1,39.29-3.72c7.32.06,12.71.53,18.76,2.93,3.55,1.41,10,4.07,15,10.76a28.28,28.28,0,0,1,5.47,13.78,24.49,24.49,0,0,1-1.56,11,8,8,0,0,1-2.54,4,5.72,5.72,0,0,1-5,1.27,5.42,5.42,0,0,1-3.32-3.32,6,6,0,0,1,.1-4.21,6.81,6.81,0,0,1,1.76-2.54,10.19,10.19,0,0,1,5.08-2.64,9.66,9.66,0,0,0-4.11.3,8.18,8.18,0,0,0-5.18,3.91,8,8,0,0,0-.19,6.45,8.52,8.52,0,0,0,4.69,4.69,9,9,0,0,0,6.93-.31,11.4,11.4,0,0,0,5.24-4.64,16.49,16.49,0,0,0,2.27-6.92,31.48,31.48,0,0,0-1.54-14.52,33,33,0,0,0-5.37-9.77,35.57,35.57,0,0,0-9.29-8,40.31,40.31,0,0,0-13.49-5c-5.11-1.09-8.8-1.08-15.83-1.08a134.54,134.54,0,0,0-16.23,1c-5.08.62-8.73,1.39-16,2.93s-11.46,2.42-17.1,4c-3.8,1.07-3.34,1.08-20.43,6.74-7.53,2.5-9.66,3.18-12.9,4a118.27,118.27,0,0,1-13.78,2.74c-4.85.64-8.6.8-10.85.88C389.24,121.75,375.74,120.8,375.72,121.13Z" transform="translate(-12.32 -0.06)"/><path class="cls-2" d="M396.49,124.77c0,.23,8.29,1.65,18.76,1.88a72.77,72.77,0,0,0,13.33-.5,74.69,74.69,0,0,0,16.5-4.54c3.48-1.32,2.75-1.27,9-3.85,6.92-2.86,10.47-4.32,15.31-5.63,4.61-1.25,7.78-2.08,12.25-2.07A40.23,40.23,0,0,1,492,111.54a55.81,55.81,0,0,1,8.59,3.35c.1-.19-4.69-3.77-11.56-5.43a34.6,34.6,0,0,0-8.69-.89c-4.57,0-8.87.8-16.09,2.67-4.79,1.24-5.21,1.67-16.2,5.43-9.32,3.19-14.07,4.8-18.86,5.93a95.1,95.1,0,0,1-16.1,2.57C403.14,125.83,396.51,124.53,396.49,124.77Z" transform="translate(-12.32 -0.06)"/><path class="cls-2" d="M451,123.78c-.18-.37,5.67-4.16,13.33-7a45,45,0,0,1,8-2.37,35.76,35.76,0,0,1,16.89.49c5.72,1.66,9.46,4.5,14.22,8.1a36.32,36.32,0,0,1,6,5.34,71,71,0,0,0-9.58-6.42,47.7,47.7,0,0,0-9.58-3.76,49.71,49.71,0,0,0-20.74-.89C458.29,119.13,451.21,124.19,451,123.78Z" transform="translate(-12.32 -0.06)"/><path class="cls-2" d="M451.5,125.52c-.18.37,5.67,4.16,13.33,7a44.72,44.72,0,0,0,8,2.37,35.76,35.76,0,0,0,16.89-.49c5.72-1.66,9.46-4.49,14.22-8.1a37.09,37.09,0,0,0,6-5.33c-.12-.15-3.79,3.37-9.58,6.41a47.7,47.7,0,0,1-9.58,3.76,49.55,49.55,0,0,1-20.74.89C458.79,130.17,451.7,125.11,451.5,125.52Z" transform="translate(-12.32 -0.06)"/><path class="cls-2" d="M471.64,120a28.27,28.27,0,0,1,5.73.59c1.05.22,1.29.34,3.26.79a28.76,28.76,0,0,0,4.74.89,11.73,11.73,0,0,0,4.84-.89,50.9,50.9,0,0,1-6.62-.89c-2.14-.42-2.6-.66-4.7-1a21.75,21.75,0,0,0-6.75-.56,16.51,16.51,0,0,0-5.83,1.88Z" transform="translate(-12.32 -0.06)"/><path class="cls-2" d="M464.93,123.09c2.95.35,5.38.71,7.11,1,4.14.66,5.14,1,7.8,1.18a32.34,32.34,0,0,0,6.91,0,28,28,0,0,0,7.8-2.07,18.43,18.43,0,0,1-8.69,4.35,18.11,18.11,0,0,1-7.3-.1,22.84,22.84,0,0,1-4.15-1.48A52.25,52.25,0,0,0,464.93,123.09Z" transform="translate(-12.32 -0.06)"/><path class="cls-2" d="M533.86,97.51a11.73,11.73,0,0,1,4.54-3c3.22-1.12,6-.37,9,.3,4.14.93,8.41,1.22,12.54,2.17,7.05,1.62,12.39,2.14,21.83,3.06a177.16,177.16,0,0,0,23.6,1A136.19,136.19,0,0,0,624,99.49c8.28-1.32,10.79-2.58,19.55-4a142.47,142.47,0,0,1,16-1.78,88.72,88.72,0,0,0-12,2.27c-4.42,1.16-6.43,2.06-10.27,3.26a104.79,104.79,0,0,1-17,3.75,133.42,133.42,0,0,1-21.24,1.39,152.55,152.55,0,0,1-15.8-1.09,171.08,171.08,0,0,1-17.18-3c-7.64-1.73-11.26-2.67-11.26-2.67-4.89-1.27-7.6-2.13-11.36-2a38.07,38.07,0,0,0-6.32.89A33,33,0,0,0,533.86,97.51Z" transform="translate(-12.32 -0.06)"/><path class="cls-2" d="M558.85,104.33,572,105.41c13.86,1.15,14.89,1.28,17.78,1.39a125.79,125.79,0,0,0,20-.5,110.79,110.79,0,0,0,17.48-3.16,90,90,0,0,1,9.09-2.37,48.08,48.08,0,0,1,13.62-.39,67.51,67.51,0,0,0-7.3,1,80.07,80.07,0,0,0-11.87,3.43c-7.42,2.45-13.53,3.06-19.74,3.69a128.13,128.13,0,0,1-16.09.49,160.19,160.19,0,0,1-17.09-1.58C572.87,106.75,566.41,105.8,558.85,104.33Z" transform="translate(-12.32 -0.06)"/><path class="cls-2" d="M611.19,82.8a28.77,28.77,0,0,1,6.22-6.42,32.22,32.22,0,0,1,9.29-4.74c6.34-2.1,12.37-2.13,12.44-1.68s-4.69.67-11.16,3.46a38.26,38.26,0,0,0-14.32,10.07,31.68,31.68,0,0,0-5,7.8,29.29,29.29,0,0,0-2.17,7.61A28.23,28.23,0,0,1,611.19,82.8Z" transform="translate(-12.32 -0.06)"/><path class="cls-2" d="M608,96.82a43.31,43.31,0,0,1,3.36-4.54,57.47,57.47,0,0,1,6.52-6.42c.83-.74,2-1.73,3.06-2.57a35.4,35.4,0,0,1,11.45-5.73c-4.27,2.52-7.71,4.87-10.27,6.72C620.4,85.55,618.44,87,616,89A82,82,0,0,0,608,96.82Z" transform="translate(-12.32 -0.06)"/><path class="cls-2" d="M614.45,95.74a11.52,11.52,0,0,1,9.18-6.92,18,18,0,0,1-4.48,4.54A18.47,18.47,0,0,1,614.45,95.74Z" transform="translate(-12.32 -0.06)"/><path class="cls-2" d="M620.23,95.14a16.21,16.21,0,0,0,8.29-.79c9.7-3.69,11.57-16,11.76-17.38a24.56,24.56,0,0,0-.65-9.7,54.9,54.9,0,0,1-.84,6.15c-1,5.09-2.29,11.38-7,16.49a16.28,16.28,0,0,1-5.43,4A14.67,14.67,0,0,1,620.23,95.14Z" transform="translate(-12.32 -0.06)"/><path class="cls-2" d="M576.22,111.43a79.2,79.2,0,0,0,15.62,4.15,80.4,80.4,0,0,0,27.08-.32,82.57,82.57,0,0,0,19-6,83.68,83.68,0,0,0,12.45-7,93.57,93.57,0,0,1-17.91,8,91.35,91.35,0,0,1-28,4.59,116.34,116.34,0,0,1-13.76-1C584.85,113.15,579.9,112.22,576.22,111.43Z" transform="translate(-12.32 -0.06)"/><path class="cls-2" d="M644.37,92.54a14.1,14.1,0,0,0,7.42-3.6,14.56,14.56,0,0,0,4.37-10.27,27.85,27.85,0,0,1-11.79,13.87Z" transform="translate(-12.32 -0.06)"/><path class="cls-2" d="M657.13,90.74a14,14,0,0,0,7.94-2.27,14.59,14.59,0,0,0,6.06-9.37A27.88,27.88,0,0,1,665.28,86,27.59,27.59,0,0,1,657.13,90.74Z" transform="translate(-12.32 -0.06)"/><path class="cls-2" d="M652.27,90.3a20.29,20.29,0,0,0,9.27-7.44,21,21,0,0,0,2.84-15.81A40.09,40.09,0,0,1,652.27,90.3Z" transform="translate(-12.32 -0.06)"/><path class="cls-2" d="M632.57,126.61a40.1,40.1,0,0,0,3.82,2.08c1.32.62,2.57,1.12,3.72,1.53A3.23,3.23,0,0,1,638,132C636.19,132.33,633.66,130.31,632.57,126.61Z" transform="translate(-12.32 -0.06)"/><path class="cls-2" d="M627,127.6c0,1-.11,5.22,3,8.19a11.25,11.25,0,0,0,6.66,2.83c3.36.4,4-.87,7.11-.26a14.76,14.76,0,0,1,5.67,2.67,20,20,0,0,1,4.26,3.93,13.2,13.2,0,0,0-3.93-2.19,17.33,17.33,0,0,0-5.79-.76c-2.64,0-2.78.25-5.13.22-3,0-4.61-.06-6.34-.88-3.62-1.71-4.93-5.62-5.24-6.55A12.83,12.83,0,0,1,627,127.6Z" transform="translate(-12.32 -0.06)"/><path class="cls-2" d="M557.33,110.12c0-.2,2.68-.55,5.79-.22a25.89,25.89,0,0,1,7.53,2.08c7.55,3.12,13.22,5.79,13.22,5.79,7.53,3.54,8.44,4,10.81,4.69a42,42,0,0,0,9.5,1.53,53.14,53.14,0,0,0,10.7-.76c3.11-.44,2.91-.59,7.32-1.31A80.65,80.65,0,0,1,633,120.61c3.55-.14,5.84-.22,8.84.54A17,17,0,0,1,648.3,124c1.73,1.3,2.68,2.65,4.58,5.35s3.38,5.32,4.26,6.88c1.42,2.51,1.77,3.34,3,4.59a12.56,12.56,0,0,0,4,2.95,17.59,17.59,0,0,0,4.81,1.2,9.4,9.4,0,0,1-5.57-.44c-.79-.3-2.92-1.22-7.76-7.86-2.8-3.86-2.55-4.19-4.47-6.33a18.87,18.87,0,0,0-6.88-5.46c-1-.42-2.81-1-8.08-1a74.72,74.72,0,0,0-12.13,1.2c-7.42,1.24-8.4,2-13.73,2.46a32.83,32.83,0,0,1-8.46,0c-3-.44-5.86-1.71-11.55-4.23-3.69-1.64-6.3-2.8-9.83-4.7-3.31-1.79-4.61-2.71-8.3-4.48a39.52,39.52,0,0,0-6.22-2.62C561.05,110.06,557.33,110.37,557.33,110.12Z" transform="translate(-12.32 -0.06)"/><path class="cls-2" d="M665,112.31a7.94,7.94,0,0,0-2.3-4.81,7.72,7.72,0,0,0-3.6-2,5.26,5.26,0,0,1,4.37-.22,4.45,4.45,0,0,1,2.4,2.29A4.65,4.65,0,0,1,665,112.31Z" transform="translate(-12.32 -0.06)"/><path class="cls-2" d="M675.35,112.31a12.28,12.28,0,0,0-4.52-7,12.06,12.06,0,0,0-6-2.29,7.63,7.63,0,0,1,10,4.28A8.42,8.42,0,0,1,675.35,112.31Z" transform="translate(-12.32 -0.06)"/><path class="cls-2" d="M681.41,115.81a17.15,17.15,0,0,0-4.73-10.58,17,17,0,0,0-7.74-4.48,10.88,10.88,0,0,1,8,1.16,10.72,10.72,0,0,1,4.46,5.52A12,12,0,0,1,681.41,115.81Z" transform="translate(-12.32 -0.06)"/><path class="cls-2" d="M687.45,114.3A21.71,21.71,0,0,0,682,100.73a21.3,21.3,0,0,0-9.52-6,12.75,12.75,0,0,1,15.14,8.41A15.76,15.76,0,0,1,687.45,114.3Z" transform="translate(-12.32 -0.06)"/><path class="cls-2" d="M589.22,117.77l7.42,1.42c3.46.65,4.06.76,4.92.87a36.87,36.87,0,0,0,9.06-.11,67.6,67.6,0,0,0,11.47-2.29,97.79,97.79,0,0,0,11-3.72c12.1-4.93,21.19-11.91,26.64-16.16,5.16-4,5.56-4.85,14.75-12.12C680,81.33,683,79.13,687.39,77c7.55-3.58,12.27-3.57,14-3.49,2.54.11,6,.31,9.06,2.84a10.47,10.47,0,0,1,3.94,7c.06.85.35,4.41-2.19,6.44-.24.19-2.66,2.07-5.13,1-2.11-.92-2.77-3.35-2.73-4.91,0-2.21,1.51-3.92,1.75-3.82s-.85,2-.22,4.26a3.61,3.61,0,0,0,1.74,2.51,3.26,3.26,0,0,0,3.17-.55c1.75-1.38,1.77-4.52.77-6.55-1.36-2.75-4.6-3.54-6.34-3.93-2.58-.59-7.38-1-16.38,3.38-2.15,1.06-4.68,2.46-14.52,9.72-8.78,6.49-9.3,7.25-14.74,11a146.44,146.44,0,0,1-14.2,9c-6,3.26-10.87,5.94-18,8a64.87,64.87,0,0,1-17,2.51A61.83,61.83,0,0,1,589.22,117.77Z" transform="translate(-12.32 -0.06)"/><path class="cls-2" d="M690.56,73.65a3.68,3.68,0,0,0,2,0,3.78,3.78,0,0,0,1.75-1.2c1.29-1.46,3.07-2.39,4.59-3.61,3.08-2.46,7.65-2.34,9.5-2.29,2.08.06,7.17.19,11.14,4,3.73,3.62,4.16,8.29,4.37,10.59a19.57,19.57,0,0,1-4,14,14.26,14.26,0,0,1-7.87,5.35,12.84,12.84,0,0,1-10.15-1.85,12,12,0,0,1-5.14-10,10.83,10.83,0,0,1,1.64-5.24c1.63-2.56,4.1-3.9,4.26-3.71s-2.31,1.68-3.49,4.8a10.73,10.73,0,0,0,.11,7.43,10.21,10.21,0,0,0,5.67,5.57c4.42,1.6,8.38-.8,9.4-1.42,5.49-3.34,6.34-9.79,6.55-11.36.27-2.06.92-7-2.3-10.92-2.88-3.5-7.2-4.11-9.82-4.48a13.52,13.52,0,0,0-6.77.33c-2.71.94-2.81,2.18-6.45,3.93-1.29.62-5.41,2.6-6.77,1.2a2.42,2.42,0,0,1-.38-2Z" transform="translate(-12.32 -0.06)"/><path class="cls-2" d="M306.25,84.56c-16.1-6-26.47-5-32.29-3.55-2.64.66-8.5,2.44-9.14,2.64-10.11,3.09-12.35,4.33-18.68,6.19-10.79,3.17-18,3.6-18,3.86s12.67,0,28.13-4c11-2.81,12.68-4.69,20.51-6.19A68.77,68.77,0,0,1,306.25,84.56Z" transform="translate(-12.32 -0.06)"/><path class="cls-2" d="M274.67,77.25a49,49,0,0,1-13.81,6.3,49.43,49.43,0,0,1-20.1,1.32,175.48,175.48,0,0,0,18.89-3.35C265.09,80.24,270.1,78.77,274.67,77.25Z" transform="translate(-12.32 -0.06)"/><path class="cls-2" d="M256.7,68.71a18.6,18.6,0,0,0-6.19-10.41C242.83,52,233,55,232.23,55.25a27.69,27.69,0,0,1,15.41,4.14A27.4,27.4,0,0,1,256.7,68.71Z" transform="translate(-12.32 -0.06)"/><path class="cls-2" d="M250.91,66.08a10.17,10.17,0,0,1-14.72-6.8,31.7,31.7,0,0,0,14.72,6.8Z" transform="translate(-12.32 -0.06)"/><path class="cls-2" d="M254.77,68.93c-2.05,1-9.13,4-16.55,1.21C228.29,66.43,224.8,55,225.33,54.61s4.62,9.15,14.52,13.1A27.44,27.44,0,0,0,254.77,68.93Z" transform="translate(-12.32 -0.06)"/><path class="cls-2" d="M174,149.47c-2.11-.85-9.14-4-12.16-11.3-4-9.8,2-20.16,2.61-20s-3.56,9.62.29,19.55A27.27,27.27,0,0,0,174,149.47Z" transform="translate(-12.32 -0.06)"/><path class="cls-2" d="M176.37,146c-1.83-1.35-7.85-6.14-8.93-14-1.45-10.5,7-19,7.55-18.73s-5.86,8.42-4.64,19A27.39,27.39,0,0,0,176.37,146Z" transform="translate(-12.32 -0.06)"/><path class="cls-2" d="M162.63,144.92c-1.32-.76-5.69-3.49-7-8.63-1.77-6.88,3.19-13.19,3.6-13s-3.26,6.05-1.64,13A18.34,18.34,0,0,0,162.63,144.92Z" transform="translate(-12.32 -0.06)"/><path class="cls-2" d="M154.83,142a10.81,10.81,0,0,1-5-6.45c-1.19-5.09,2.55-9.66,2.85-9.54s-2.49,4.4-1.41,9.54A13.53,13.53,0,0,0,154.83,142Z" transform="translate(-12.32 -0.06)"/><path class="cls-2" d="M249.59,73.29c-11.76,4.43-20.54,7.82-26.63,10.19-3.78,1.48-8.67,3.4-15.5,5.65a125.45,125.45,0,0,1-12.09,3.66c-6.91,1.47-22.84,4.86-37.46-3a30.38,30.38,0,0,1-12-10.35c-1.59-2.46-6.92-10.7-3.55-19,.48-1.19,2.45-6.42,7.41-8.23,7-2.56,16.29,3.1,18.69,10.66.24.77,2.31,7.69-2.14,12.8a12.66,12.66,0,0,1-7.1,4,13.4,13.4,0,0,0,5.07-4.27c.62-.87,4.12-6,1.73-11.88A12,12,0,0,0,156,56.23c-.7,0-6.21-.42-9.14,3.35-3.51,4.52-.49,11.32.71,14A25.37,25.37,0,0,0,155.16,83c2.33,1.83,8,5.75,20,7.21a73.86,73.86,0,0,0,25.08-1.42A296.84,296.84,0,0,0,249.59,73.29Z" transform="translate(-12.32 -0.06)"/><path class="cls-2" d="M201.57,83.44a13,13,0,0,1-19.7,1.32c-5-4.91-3.87-11.65-3.76-12.28A15.25,15.25,0,0,0,187.45,85C194.67,87.89,201,83.8,201.57,83.44Z" transform="translate(-12.32 -0.06)"/><path class="cls-2" d="M208.37,80.13a13,13,0,0,1-19.7,1.32c-4.95-4.91-3.87-11.65-3.75-12.29a15.22,15.22,0,0,0,9.34,12.49C201.48,84.57,207.83,80.49,208.37,80.13Z" transform="translate(-12.32 -0.06)"/><path class="cls-2" d="M220.76,77.86a13,13,0,0,1-19.7,1.32c-4.95-4.91-3.87-11.65-3.76-12.29a15.22,15.22,0,0,0,9.34,12.49C213.87,82.3,220.22,78.22,220.76,77.86Z" transform="translate(-12.32 -0.06)"/><path class="cls-2" d="M367.38,106.9s-1.49-1.14-3.31-2.81c-4.2-3.86-6.36-7.2-9.08-11a117.56,117.56,0,0,0-8.11-10.45c-5.94-6.35-13.05-8.81-18.49-10.57-19.05-6.14-36.46-2.59-36.46-2.43a66.13,66.13,0,0,1,24.78.91c3.21.72,18.1,4.26,27.21,13.1.61.59,3.63,3.56,7.31,7.61,3.86,4.24,4,4.74,6.5,7.31A72.57,72.57,0,0,0,367.38,106.9Z" transform="translate(-12.32 -0.06)"/><path class="cls-2" d="M367.74,110.45s-1.46-1.21-2.55-2.17a72.81,72.81,0,0,1-10-10.92,77.71,77.71,0,0,0-13.3-13.81,56.19,56.19,0,0,0-18.07-9.14c-9.39-2.79-17.33-2.45-17.37-2.13s7.68.71,18.18,4.36a57.86,57.86,0,0,1,10.86,4.88,59.45,59.45,0,0,1,9.24,6.9c1.57,1.38,3.44,3.27,7.11,7,5.63,5.72,5.82,6.13,8.45,8.59C364.21,107.69,367.74,110.46,367.74,110.45Z" transform="translate(-12.32 -0.06)"/><path class="cls-2" d="M367.17,111.67A124.42,124.42,0,0,0,321.89,80.6a121.8,121.8,0,0,0-50.06-8.53c-9.08.44-22.41,1.22-37.57,8.63A84.82,84.82,0,0,0,210.6,98,114.55,114.55,0,0,1,255,78c29.38-6.17,52.8,1.34,62.24,4.37A133.84,133.84,0,0,1,367.17,111.67Z" transform="translate(-12.32 -0.06)"/><path class="cls-2" d="M363.2,113.74A92.56,92.56,0,0,0,337,97.07c-15.27-6.37-28.43-6.93-42.52-7.52a191.74,191.74,0,0,0-35.62,1.85A138.59,138.59,0,0,1,302.15,87c10.5.6,21.35,1.32,34.08,7A80.14,80.14,0,0,1,363.2,113.74Z" transform="translate(-12.32 -0.06)"/><path class="cls-2" d="M346.11,108.91a80,80,0,0,0-8-2.27c-6.16-1.4-9-1.28-12.15-3.5a14.09,14.09,0,0,1-4.11-4.63,20.41,20.41,0,0,0,6.58,4.42c3.41,1.41,5.44,1.1,9.48,2.27A32.54,32.54,0,0,1,346.11,108.91Z" transform="translate(-12.32 -0.06)"/><path class="cls-2" d="M355.48,111.89c-6.72,1.59-15.56,2.48-24.71-.62-14.15-4.79-22.34-16.88-22.34-16.88a46.39,46.39,0,0,0,15.24,11.84,54.37,54.37,0,0,0,14,4.53A66.76,66.76,0,0,0,355.48,111.89Z" transform="translate(-12.32 -0.06)"/><path class="cls-2" d="M364.76,113.82a48.11,48.11,0,0,1-19.06,4.1,49.09,49.09,0,0,1-10.92-1c-1.88-.39-3.78-.91-12.34-4.3s-9.53-4-14.07-5.67A123.54,123.54,0,0,0,296,103.07c-8.4-2.11-14.87-2.45-23.35-2.84a197.16,197.16,0,0,0-23.17.3,131.67,131.67,0,0,1,27.66-2.25,101.21,101.21,0,0,1,15.35,1.56,104,104,0,0,1,16.32,4.2c4.37,1.55,3.55,1.63,16.42,7.14,7.38,3.16,9.9,4.1,13.49,4.79a48.91,48.91,0,0,0,10.85.78A51.14,51.14,0,0,0,364.76,113.82Z" transform="translate(-12.32 -0.06)"/><path class="cls-2" d="M331.53,118.8a49.82,49.82,0,0,1-15.37-4.44c-1.43-.68-1.45-.77-3.17-1.58a72.66,72.66,0,0,0-15.24-5.19,92.44,92.44,0,0,0-12.47-1.73c-3.76-.36-8.88-.73-15-.84a99,99,0,0,1,21.7.29,70.42,70.42,0,0,1,15.83,3.52c2.72,1,3.89,1.61,8.72,3.73C320.66,114.39,325.71,116.52,331.53,118.8Z" transform="translate(-12.32 -0.06)"/><path class="cls-2" d="M361.05,121.54c0,.41-20.84,3.39-41.34,1.17a115,115,0,0,1-14.49-2.56c-9-2.1-13.59-4.16-21.92-6.92a240.28,240.28,0,0,0-23.51-6.45,189.31,189.31,0,0,0-39.29-3.71c-7.32.05-12.71.52-18.77,2.93-3.54,1.41-10,4.07-14.95,10.75a28.34,28.34,0,0,0-5.47,13.78,24.4,24.4,0,0,0,1.56,11.05,8,8,0,0,0,2.54,4,5.69,5.69,0,0,0,5,1.27,5.4,5.4,0,0,0,3.32-3.32,6,6,0,0,0-.1-4.2,6.72,6.72,0,0,0-1.76-2.54,10.11,10.11,0,0,0-5.08-2.64,9.62,9.62,0,0,1,4.11.29,8.22,8.22,0,0,1,5.18,3.91,8,8,0,0,1,.19,6.45,8.55,8.55,0,0,1-4.69,4.69,9,9,0,0,1-6.93-.31,11.4,11.4,0,0,1-5.24-4.64,16.48,16.48,0,0,1-2.27-6.91,31.52,31.52,0,0,1,1.54-14.53,33,33,0,0,1,5.37-9.77,36,36,0,0,1,9.29-8,40.53,40.53,0,0,1,13.49-5c5.11-1.08,8.8-1.08,15.83-1.07a135.18,135.18,0,0,1,16.23,1c5.08.63,8.73,1.4,16,2.93s11.47,2.42,17.11,4c3.79,1.07,3.34,1.08,20.43,6.75,7.52,2.49,9.66,3.17,12.9,4a117.86,117.86,0,0,0,13.78,2.74c4.85.64,8.6.8,10.85.88C347.53,122.16,361,121.21,361.05,121.54Z" transform="translate(-12.32 -0.06)"/><path class="cls-2" d="M340.28,125.18c0,.23-8.29,1.65-18.76,1.88a72.8,72.8,0,0,1-13.33-.49,74.61,74.61,0,0,1-16.5-4.55c-3.48-1.32-2.75-1.27-9-3.85-6.92-2.86-10.47-4.31-15.31-5.63-4.61-1.24-7.78-2.08-12.25-2.07A40.23,40.23,0,0,0,244.78,112a55.1,55.1,0,0,0-8.59,3.36c-.1-.2,4.69-3.77,11.56-5.43a34.13,34.13,0,0,1,8.69-.89c4.57,0,8.87.8,16.09,2.66,4.79,1.24,5.21,1.68,16.2,5.44,9.31,3.18,14.07,4.79,18.86,5.92a94.09,94.09,0,0,0,16.1,2.57C333.63,126.24,340.26,124.94,340.28,125.18Z" transform="translate(-12.32 -0.06)"/><path class="cls-2" d="M285.77,124.2c.18-.37-5.67-4.17-13.33-7a45,45,0,0,0-8-2.37,35.63,35.63,0,0,0-16.89.49c-5.72,1.66-9.46,4.49-14.22,8.1a37.09,37.09,0,0,0-6,5.33,72.09,72.09,0,0,1,9.58-6.42,48.54,48.54,0,0,1,9.58-3.75,49.34,49.34,0,0,1,20.74-.89C278.47,119.55,285.56,124.61,285.77,124.2Z" transform="translate(-12.32 -0.06)"/><path class="cls-2" d="M285.27,125.93c.18.37-5.67,4.17-13.33,7a44.72,44.72,0,0,1-8,2.37,35.62,35.62,0,0,1-16.89-.49c-5.72-1.66-9.46-4.49-14.22-8.1a37.09,37.09,0,0,1-6-5.33,72.09,72.09,0,0,0,9.58,6.42,48.54,48.54,0,0,0,9.58,3.75,49.35,49.35,0,0,0,20.74.89C278,130.58,285.06,125.52,285.27,125.93Z" transform="translate(-12.32 -0.06)"/><path class="cls-2" d="M265.13,120.44a28.14,28.14,0,0,0-5.73.6c-1,.22-1.29.34-3.26.79a29.91,29.91,0,0,1-4.74.89,11.73,11.73,0,0,1-4.84-.89,54.64,54.64,0,0,0,6.62-.89c2.14-.43,2.6-.66,4.7-1a21.72,21.72,0,0,1,6.75-.55,16.45,16.45,0,0,1,5.83,1.87Z" transform="translate(-12.32 -0.06)"/><path class="cls-2" d="M271.84,123.51c-2.95.35-5.38.71-7.11,1-4.14.66-5.14,1-7.8,1.19a33,33,0,0,1-6.91,0,28.51,28.51,0,0,1-7.81-2.08,18.29,18.29,0,0,0,8.7,4.35,17.93,17.93,0,0,0,7.3-.1,22.12,22.12,0,0,0,4.15-1.48A51.58,51.58,0,0,1,271.84,123.51Z" transform="translate(-12.32 -0.06)"/><path class="cls-2" d="M202.91,97.93a11.82,11.82,0,0,0-4.55-3c-3.21-1.11-6-.36-9,.3-4.14.93-8.41,1.22-12.54,2.17-7.05,1.63-12.39,2.15-21.83,3.06a175.46,175.46,0,0,1-23.6,1,134.61,134.61,0,0,1-18.67-1.58c-8.28-1.32-10.79-2.57-19.55-4.05a142,142,0,0,0-16-1.77,87.15,87.15,0,0,1,12,2.27c4.42,1.16,6.43,2.05,10.27,3.26a107,107,0,0,0,17,3.75,133.92,133.92,0,0,0,21.24,1.38,154.32,154.32,0,0,0,15.8-1.08,173.32,173.32,0,0,0,17.18-3C178.25,99,181.87,98,181.87,98c4.89-1.28,7.6-2.14,11.36-2a38.07,38.07,0,0,1,6.32.89A33.41,33.41,0,0,1,202.91,97.93Z" transform="translate(-12.32 -0.06)"/><path class="cls-2" d="M177.92,104.74l-13.13,1.09c-13.86,1.14-14.9,1.27-17.78,1.38a126.81,126.81,0,0,1-19.95-.49,110.6,110.6,0,0,1-17.48-3.16,87.37,87.37,0,0,0-9.09-2.37,48.21,48.21,0,0,0-13.63-.4,65.36,65.36,0,0,1,7.31,1A80.24,80.24,0,0,1,106,105.2c7.42,2.45,13.53,3.07,19.74,3.69a126,126,0,0,0,16.09.49A157.86,157.86,0,0,0,159,107.8C163.9,107.17,170.36,106.21,177.92,104.74Z" transform="translate(-12.32 -0.06)"/><path class="cls-2" d="M125.58,83.21a29.25,29.25,0,0,0-6.22-6.42,32.22,32.22,0,0,0-9.29-4.74c-6.35-2.1-12.37-2.13-12.44-1.68s4.69.67,11.16,3.46A38.26,38.26,0,0,1,123.11,83.9a31.66,31.66,0,0,1,5,7.81,29.24,29.24,0,0,1,2.17,7.6A28.23,28.23,0,0,0,125.58,83.21Z" transform="translate(-12.32 -0.06)"/><path class="cls-2" d="M128.74,97.24a44.72,44.72,0,0,0-3.36-4.55,57.47,57.47,0,0,0-6.52-6.42c-.84-.73-2-1.72-3.06-2.56A35.4,35.4,0,0,0,104.35,78c4.27,2.52,7.71,4.87,10.27,6.71,1.75,1.27,3.71,2.69,6.12,4.74A80.78,80.78,0,0,1,128.74,97.24Z" transform="translate(-12.32 -0.06)"/><path class="cls-2" d="M122.32,96.15a11.48,11.48,0,0,0-9.19-6.91,18.43,18.43,0,0,0,4.49,4.53A18.15,18.15,0,0,0,122.32,96.15Z" transform="translate(-12.32 -0.06)"/><path class="cls-2" d="M116.54,95.56a16.21,16.21,0,0,1-8.29-.79c-9.7-3.69-11.57-16-11.76-17.38a24.63,24.63,0,0,1,.65-9.71A54.59,54.59,0,0,0,98,73.83c1,5.1,2.29,11.39,7,16.49a16.28,16.28,0,0,0,5.43,4.05A14.87,14.87,0,0,0,116.54,95.56Z" transform="translate(-12.32 -0.06)"/><path class="cls-2" d="M160.55,111.85a79.82,79.82,0,0,1-42.7,3.82,82.42,82.42,0,0,1-19-6,81.92,81.92,0,0,1-12.45-7,94.33,94.33,0,0,0,17.91,8,91.54,91.54,0,0,0,27.95,4.58,116.34,116.34,0,0,0,13.76-1C151.92,113.56,156.87,112.64,160.55,111.85Z" transform="translate(-12.32 -0.06)"/><path class="cls-2" d="M92.4,93A14,14,0,0,1,85,89.35a14.54,14.54,0,0,1-4.37-10.26A28,28,0,0,0,92.4,93Z" transform="translate(-12.32 -0.06)"/><path class="cls-2" d="M79.64,91.16a14.07,14.07,0,0,1-7.94-2.28,14.56,14.56,0,0,1-6.06-9.36,27.88,27.88,0,0,0,14,11.64Z" transform="translate(-12.32 -0.06)"/><path class="cls-2" d="M84.49,90.71a20.21,20.21,0,0,1-9.26-7.44,21,21,0,0,1-2.84-15.81,40.07,40.07,0,0,0,12.1,23.25Z" transform="translate(-12.32 -0.06)"/><path class="cls-5" d="M104.2,127a39.2,39.2,0,0,1-3.83,2.07c-1.31.62-2.56,1.12-3.71,1.53a3.22,3.22,0,0,0,2.08,1.75C100.58,132.75,103.11,130.73,104.2,127Z" transform="translate(-12.32 -0.06)"/><path class="cls-2" d="M109.77,128c0,1,.11,5.22-3,8.19a11.35,11.35,0,0,1-6.66,2.84c-3.36.4-4-.88-7.11-.26a14.76,14.76,0,0,0-5.67,2.66,20.24,20.24,0,0,0-4.26,3.93,13.44,13.44,0,0,1,3.93-2.18,17.33,17.33,0,0,1,5.79-.77c2.64,0,2.78.25,5.13.22,3,0,4.61,0,6.34-.87,3.62-1.72,4.93-5.63,5.24-6.55A12.86,12.86,0,0,0,109.77,128Z" transform="translate(-12.32 -0.06)"/><path class="cls-2" d="M179.44,110.54c0-.21-2.68-.55-5.79-.22a25.79,25.79,0,0,0-7.54,2.07c-7.54,3.12-13.21,5.79-13.21,5.79-7.53,3.54-8.44,4-10.81,4.7a43.22,43.22,0,0,1-9.5,1.53,53.12,53.12,0,0,1-10.7-.77c-3.11-.44-2.91-.59-7.32-1.31A80.85,80.85,0,0,0,103.76,121c-3.55-.14-5.84-.21-8.85.55a16.85,16.85,0,0,0-6.44,2.84c-1.73,1.29-2.68,2.64-4.58,5.35a79.94,79.94,0,0,0-4.26,6.88c-1.43,2.51-1.77,3.33-2.95,4.58a12.56,12.56,0,0,1-4,2.95,17.59,17.59,0,0,1-4.81,1.2,9.35,9.35,0,0,0,5.57-.43c.79-.3,2.92-1.23,7.76-7.87,2.8-3.85,2.55-4.18,4.47-6.33a19,19,0,0,1,6.88-5.46c1-.42,2.81-1,8.08-1a74.52,74.52,0,0,1,12.12,1.2c7.43,1.24,8.41,2,13.74,2.45a33.31,33.31,0,0,0,8.46,0c3-.44,5.85-1.71,11.55-4.24,3.69-1.64,6.3-2.8,9.83-4.7,3.31-1.78,4.61-2.7,8.3-4.47a38.58,38.58,0,0,1,6.22-2.62C175.72,110.48,179.44,110.78,179.44,110.54Z" transform="translate(-12.32 -0.06)"/><path class="cls-2" d="M71.76,112.72a7.9,7.9,0,0,1,2.3-4.8,7.76,7.76,0,0,1,3.6-2,5.35,5.35,0,0,0-4.37-.22,4.48,4.48,0,0,0-2.4,2.3A4.63,4.63,0,0,0,71.76,112.72Z" transform="translate(-12.32 -0.06)"/><path class="cls-2" d="M61.42,112.72a12.27,12.27,0,0,1,4.52-7,12.1,12.1,0,0,1,6-2.3,7.64,7.64,0,0,0-10,4.29A8.45,8.45,0,0,0,61.42,112.72Z" transform="translate(-12.32 -0.06)"/><path class="cls-2" d="M55.36,116.23a17.17,17.17,0,0,1,4.73-10.59,16.9,16.9,0,0,1,7.74-4.47,10.41,10.41,0,0,0-12.48,6.67A12.11,12.11,0,0,0,55.36,116.23Z" transform="translate(-12.32 -0.06)"/><path class="cls-2" d="M49.32,114.72a21.69,21.69,0,0,1,5.41-13.57,21.24,21.24,0,0,1,9.51-6,12.74,12.74,0,0,0-15.13,8.41A15.77,15.77,0,0,0,49.32,114.72Z" transform="translate(-12.32 -0.06)"/><path class="cls-2" d="M147.55,118.18l-7.43,1.42c-3.46.66-4.05.77-4.91.87a36.9,36.9,0,0,1-9.06-.1,67.48,67.48,0,0,1-11.47-2.3,97.2,97.2,0,0,1-11-3.71C91.55,109.43,82.46,102.44,77,98.2c-5.16-4-5.56-4.86-14.75-12.12-5.46-4.33-8.49-6.54-12.88-8.63-7.55-3.59-12.27-3.57-14-3.5-2.54.12-6,.32-9.06,2.84a10.46,10.46,0,0,0-3.94,7c-.06.86-.35,4.41,2.19,6.45.24.19,2.66,2.06,5.13,1,2.11-.93,2.77-3.35,2.73-4.92-.05-2.21-1.51-3.91-1.75-3.82s.84,2,.22,4.26a3.58,3.58,0,0,1-1.75,2.51A3.25,3.25,0,0,1,26,88.7c-1.75-1.39-1.77-4.52-.77-6.56,1.36-2.75,4.6-3.53,6.34-3.93,2.58-.58,7.37-1,16.38,3.39,2.15,1.05,4.68,2.45,14.52,9.72,8.78,6.48,9.3,7.24,14.74,11a146.62,146.62,0,0,0,14.2,9c6,3.26,10.86,6,18,8a64.87,64.87,0,0,0,17,2.51A61.58,61.58,0,0,0,147.55,118.18Z" transform="translate(-12.32 -0.06)"/><path class="cls-2" d="M46.21,74.06a3.62,3.62,0,0,1-2,0,3.72,3.72,0,0,1-1.74-1.2c-1.29-1.45-3.07-2.39-4.59-3.6-3.08-2.47-7.65-2.34-9.5-2.29-2.08,0-7.17.19-11.14,4-3.73,3.62-4.16,8.28-4.37,10.59a19.59,19.59,0,0,0,4,14,14.36,14.36,0,0,0,7.87,5.35A12.82,12.82,0,0,0,35,99.07a12,12,0,0,0,5.13-10,10.7,10.7,0,0,0-1.63-5.24c-1.63-2.56-4.1-3.89-4.26-3.71s2.31,1.68,3.49,4.8a10.73,10.73,0,0,1-.11,7.43,10.17,10.17,0,0,1-5.68,5.57c-4.41,1.61-8.37-.8-9.39-1.42C17,93.11,16.17,86.66,16,85.09c-.27-2.06-.93-7,2.29-10.92,2.89-3.49,7.21-4.1,9.83-4.47a13.5,13.5,0,0,1,6.77.32c2.71,1,2.81,2.19,6.45,3.93,1.29.63,5.41,2.61,6.77,1.21a2.44,2.44,0,0,0,.38-2.06Z" transform="translate(-12.32 -0.06)"/><rect class="cls-2" x="284.06" y="136.05" width="146.13" height="3.52" rx="1"/><rect class="cls-2" x="203.98" y="145.52" width="306.89" height="3.48" rx="1"/></svg>