<svg id="Ebene_1" data-name="Ebene 1" xmlns="http://www.w3.org/2000/svg" width="712.13" height="151.27" viewBox="0 0 712.13 151.27"><defs><style>.cls-1{fill:#fff;}.cls-1,.cls-2,.cls-3,.cls-4,.cls-5{stroke:#000;stroke-miterlimit:10;}.cls-2{fill:#91b969;}.cls-3{fill:#23af3d;}.cls-4{fill:#1db745;}.cls-5{fill:#1f9919;}</style></defs><title>logodole1234</title><path class="cls-1" d="M948.75,544.89" transform="translate(-605.82 -460.21)"/><path class="cls-2" d="M947.54,544.73C933,548,930,572.5,927,589.16c7.24-30.51,14.25-43.4,25-45Z" transform="translate(-605.82 -460.21)"/><path class="cls-2" d="M944.77,552c-4.49,1-5.39,8.56-6.32,13.69,2.23-9.4,4.39-13.37,7.68-13.86Z" transform="translate(-605.82 -460.21)"/><path class="cls-2" d="M949.15,546.83c6.07,13.63-11.93,30.59-23.54,42.92,20.23-24,26.44-37.26,21.36-46.82Z" transform="translate(-605.82 -460.21)"/><path class="cls-2" d="M974.09,545.39c-5.24,14,13.75,29.82,26.08,41.42-21.64-22.69-28.64-35.59-24.14-45.44Z" transform="translate(-605.82 -460.21)"/><path class="cls-2" d="M978.66,551.67c-1.62,4.3,4.23,9.18,8,12.75-6.67-7-8.82-11-7.44-14Z" transform="translate(-605.82 -460.21)"/><path class="cls-2" d="M976.73,545.19c14.74,2.34,19.15,26.67,23.16,43.12-9.07-30-16.83-42.47-27.62-43.41Z" transform="translate(-605.82 -460.21)"/><path class="cls-1" d="M949.48,543.76Z" transform="translate(-605.82 -460.21)"/><path class="cls-1" d="M949.48,544.16" transform="translate(-605.82 -460.21)"/><path class="cls-1" d="M963.32,611" transform="translate(-605.82 -460.21)"/><line class="cls-1" x1="357.5" y1="150.77" x2="357.5" y2="150.77"/><path class="cls-1" d="M1021.28,532.65" transform="translate(-605.82 -460.21)"/><path class="cls-2" d="M1036,582.58a67.2,67.2,0,0,0-12.08-7.16c-8-3.66-12.13-3.69-16.41-5.66-5.28-2.44-11.67-8.27-15.85-23.49,4.34,11.51,10.23,16.81,15,19.51,5.16,2.92,9.25,2.93,16.71,7.12A56.87,56.87,0,0,1,1036,582.58Z" transform="translate(-605.82 -460.21)"/><path class="cls-2" d="M996.41,550.36c-.17.17,1.78,2.4,3,3.7a61,61,0,0,0,8.62,8.05c7.76,5.49,17.59,5.29,17.71,4.75s-7.88-.9-17.07-6.6C1001.47,555.82,996.67,550.09,996.41,550.36Z" transform="translate(-605.82 -460.21)"/><path class="cls-2" d="M986.42,537.48a100,100,0,0,0,11.19,8,81.81,81.81,0,0,0,8.68,4.71c2.11,1,3.14,1.36,4.36,1.89a49.23,49.23,0,0,1,13,8.7c5.94,5.67,8.78,12.17,8.46,12.39s-3.77-6.32-11.35-12.56c-4.71-3.86-6.76-4.11-13.94-8.3A123.33,123.33,0,0,1,986.42,537.48Z" transform="translate(-605.82 -460.21)"/><path class="cls-2" d="M984.57,534.23a167.72,167.72,0,0,0,18.44,9.12c2.59,1.09,5.13,2.07,7.6,3,6.89,2.43,15.34,6.7,21.91,14.7,9.19,11.19,10.69,24.81,10.87,24.75s-.84-7.28-5.82-14.85c-1.55-2.35-4.11-5.69-10-10.49-7.58-6.17-13.4-8.83-21.26-13.1C1000.93,544.41,993.41,540.09,984.57,534.23Z" transform="translate(-605.82 -460.21)"/><path class="cls-2" d="M1016,547.54c.33-.7,21.77,4.83,26.74,17.68.43,1.11.71,2.2,2.76,8,3,8.44,4.53,12.34,4.28,12.45s-2.42-4.72-6.29-11.69c-1.66-3-4.41-7.92-6.67-11.1C1028.46,551.13,1015.76,548.08,1016,547.54Z" transform="translate(-605.82 -460.21)"/><path class="cls-2" d="M889.89,583.09A67.59,67.59,0,0,1,902,575.92c8-3.66,12.13-3.68,16.42-5.66,5.27-2.43,11.66-8.26,15.84-23.48-4.33,11.5-10.23,16.81-15,19.51-5.16,2.91-9.26,2.92-16.71,7.11A56.62,56.62,0,0,0,889.89,583.09Z" transform="translate(-605.82 -460.21)"/><path class="cls-2" d="M929.5,550.87c.17.17-1.79,2.39-3,3.7a62,62,0,0,1-8.61,8c-7.76,5.49-17.59,5.28-17.71,4.75s7.87-.91,17.06-6.6C924.43,556.33,929.23,550.6,929.5,550.87Z" transform="translate(-605.82 -460.21)"/><path class="cls-2" d="M939.48,538a100.36,100.36,0,0,1-11.19,8,83.46,83.46,0,0,1-8.67,4.71c-2.11,1-3.15,1.36-4.37,1.89a49.35,49.35,0,0,0-13,8.69c-5.94,5.68-8.78,12.17-8.45,12.4s3.76-6.32,11.35-12.56c4.7-3.87,6.76-4.12,13.93-8.3A123.33,123.33,0,0,0,939.48,538Z" transform="translate(-605.82 -460.21)"/><path class="cls-2" d="M941.33,534.73a165.08,165.08,0,0,1-18.44,9.13q-3.89,1.62-7.6,3c-6.89,2.43-15.34,6.7-21.91,14.7-9.19,11.19-10.69,24.81-10.87,24.75s.84-7.27,5.82-14.85c1.55-2.34,4.11-5.68,10-10.48,7.58-6.17,13.4-8.84,21.26-13.1C925,544.91,932.49,540.6,941.33,534.73Z" transform="translate(-605.82 -460.21)"/><path class="cls-2" d="M909.89,548.05c-.33-.7-21.78,4.83-26.75,17.67-.43,1.12-.71,2.21-2.75,8-3,8.45-4.54,12.35-4.29,12.46s2.42-4.73,6.3-11.7c1.65-3,4.4-7.91,6.66-11.09C897.45,551.63,910.14,548.59,909.89,548.05Z" transform="translate(-605.82 -460.21)"/><path class="cls-3" d="M1041.74,573.25" transform="translate(-605.82 -460.21)"/><path class="cls-2" d="M959.75,527.28a108.65,108.65,0,0,0-5.69,24.07c-3.83,32.43,9,58.64,9.55,58.48s-7.48-19.05-7.62-47.62A158.13,158.13,0,0,1,959.75,527.28Z" transform="translate(-605.82 -460.21)"/><path class="cls-2" d="M965,527.91A108.7,108.7,0,0,1,970.63,552c3.83,32.43-9,58.64-9.54,58.48s7.48-19.05,7.61-47.62A158.83,158.83,0,0,0,965,527.91Z" transform="translate(-605.82 -460.21)"/><path class="cls-2" d="M963.89,538.68a31.57,31.57,0,0,1,2.89,8.88c1.94,12-4.55,21.65-4.86,21.59s3.81-7,3.88-17.58A43.46,43.46,0,0,0,963.89,538.68Z" transform="translate(-605.82 -460.21)"/><path class="cls-2" d="M960.36,538.68a31.25,31.25,0,0,0-2.89,8.88c-2,12,4.55,21.65,4.85,21.59s-3.8-7-3.87-17.58A43.14,43.14,0,0,1,960.36,538.68Z" transform="translate(-605.82 -460.21)"/><path class="cls-4" d="M940.05,545.46" transform="translate(-605.82 -460.21)"/><path class="cls-2" d="M1024,527.38c16.1,6,26.48,5,32.29,3.56,2.65-.66,8.5-2.45,9.14-2.64,10.12-3.1,12.35-4.34,18.68-6.2,10.79-3.17,18-3.59,18-3.86s-12.67,0-28.12,4c-11,2.82-12.69,4.69-20.51,6.2A68.69,68.69,0,0,1,1024,527.38Z" transform="translate(-605.82 -460.21)"/><path class="cls-2" d="M1055.6,534.69a49.09,49.09,0,0,1,33.91-7.61,170.52,170.52,0,0,0-18.88,3.35C1065.19,531.71,1060.17,533.17,1055.6,534.69Z" transform="translate(-605.82 -460.21)"/><path class="cls-2" d="M1073.57,543.23a18.6,18.6,0,0,0,6.19,10.41c7.68,6.33,17.53,3.29,18.28,3.05a27.24,27.24,0,0,1-24.47-13.46Z" transform="translate(-605.82 -460.21)"/><path class="cls-2" d="M1079.36,545.86a10.19,10.19,0,0,1,14.72,6.81,31.5,31.5,0,0,0-6.09-4A31.84,31.84,0,0,0,1079.36,545.86Z" transform="translate(-605.82 -460.21)"/><path class="cls-2" d="M1075.5,543c2.06-1,9.13-4,16.55-1.22,9.93,3.71,13.42,15.17,12.9,15.54s-4.63-9.16-14.52-13.1A27.29,27.29,0,0,0,1075.5,543Z" transform="translate(-605.82 -460.21)"/><path class="cls-2" d="M1156.23,462.47c2.11.85,9.14,4,12.16,11.3,4,9.81-2,20.16-2.61,20s3.56-9.61-.28-19.55A27.42,27.42,0,0,0,1156.23,462.47Z" transform="translate(-605.82 -460.21)"/><path class="cls-2" d="M1153.9,466c1.83,1.35,7.85,6.14,8.93,14,1.46,10.51-7,19-7.54,18.73s5.86-8.42,4.63-19A27.36,27.36,0,0,0,1153.9,466Z" transform="translate(-605.82 -460.21)"/><path class="cls-2" d="M1167.64,467c1.32.76,5.69,3.49,7,8.62,1.77,6.88-3.19,13.19-3.59,13s3.25-6.05,1.63-13A18.29,18.29,0,0,0,1167.64,467Z" transform="translate(-605.82 -460.21)"/><path class="cls-2" d="M1175.45,470a10.83,10.83,0,0,1,5,6.46c1.2,5.09-2.55,9.65-2.84,9.53s2.49-4.4,1.4-9.53A13.59,13.59,0,0,0,1175.45,470Z" transform="translate(-605.82 -460.21)"/><path class="cls-2" d="M1080.68,538.65c11.76-4.42,20.54-7.81,26.63-10.19,3.79-1.48,8.67-3.4,15.51-5.65a125,125,0,0,1,12.08-3.65c6.92-1.47,22.85-4.87,37.47,2.94a30.47,30.47,0,0,1,12,10.36c1.59,2.46,6.92,10.69,3.55,19-.48,1.18-2.45,6.41-7.41,8.22-7,2.57-16.29-3.1-18.68-10.66-.25-.77-2.31-7.68,2.13-12.79a12.52,12.52,0,0,1,7.11-4,13.34,13.34,0,0,0-5.08,4.26c-.62.87-4.11,6-1.73,11.88a12,12,0,0,0,10.06,7.31c.69.06,6.2.43,9.13-3.35,3.51-4.51.49-11.31-.71-14a25.22,25.22,0,0,0-7.61-9.44c-2.32-1.84-8-5.76-20-7.21a73.56,73.56,0,0,0-25.07,1.42A296.36,296.36,0,0,0,1080.68,538.65Z" transform="translate(-605.82 -460.21)"/><path class="cls-2" d="M1128.71,528.5a13,13,0,0,1,19.69-1.32c4.95,4.91,3.87,11.65,3.76,12.29a15.22,15.22,0,0,0-9.34-12.49C1135.6,524.06,1129.24,528.14,1128.71,528.5Z" transform="translate(-605.82 -460.21)"/><path class="cls-2" d="M1121.9,531.81a13,13,0,0,1,19.7-1.32c5,4.91,3.87,11.66,3.76,12.29a15.25,15.25,0,0,0-9.34-12.49C1128.79,527.37,1122.44,531.46,1121.9,531.81Z" transform="translate(-605.82 -460.21)"/><path class="cls-2" d="M1109.51,534.08a13,13,0,0,1,19.7-1.32c5,4.91,3.87,11.66,3.76,12.29a15.25,15.25,0,0,0-9.34-12.49C1116.41,529.64,1110.05,533.73,1109.51,534.08Z" transform="translate(-605.82 -460.21)"/><path class="cls-2" d="M962.9,505s1.49,1.15,3.3,2.81c4.2,3.86,6.36,7.21,9.08,11a115.84,115.84,0,0,0,8.12,10.45c5.93,6.36,13.05,8.82,18.49,10.57,19.05,6.15,36.45,2.6,36.45,2.44a66.54,66.54,0,0,1-24.78-.92c-3.21-.72-18.1-4.25-27.21-13.09-.61-.59-3.63-3.57-7.31-7.62-3.86-4.24-4-4.74-6.5-7.31A74.77,74.77,0,0,0,962.9,505Z" transform="translate(-605.82 -460.21)"/><path class="cls-2" d="M962.53,501.49s1.46,1.22,2.55,2.17a72.19,72.19,0,0,1,10,10.93,77.71,77.71,0,0,0,13.3,13.81,56.31,56.31,0,0,0,18.07,9.14c9.39,2.78,17.33,2.44,17.37,2.13s-7.67-.71-18.18-4.37a58.11,58.11,0,0,1-10.86-4.87,59.4,59.4,0,0,1-9.24-6.91c-1.57-1.37-3.44-3.27-7.11-7-5.63-5.73-5.81-6.14-8.44-8.6C966.06,504.26,962.53,501.49,962.53,501.49Z" transform="translate(-605.82 -460.21)"/><path class="cls-2" d="M963.1,500.27a124.51,124.51,0,0,0,45.28,31.07,121.62,121.62,0,0,0,50.06,8.53c9.09-.44,22.41-1.22,37.57-8.63A84.52,84.52,0,0,0,1119.67,514a114.35,114.35,0,0,1-44.37,20c-29.39,6.17-52.81-1.33-62.25-4.36A134,134,0,0,1,963.1,500.27Z" transform="translate(-605.82 -460.21)"/><path class="cls-2" d="M967.07,498.2a92.55,92.55,0,0,0,26.25,16.68c15.27,6.37,28.43,6.92,42.52,7.51a191,191,0,0,0,35.63-1.85,139,139,0,0,1-43.35,4.43c-10.49-.61-21.35-1.33-34.08-7A80.25,80.25,0,0,1,967.07,498.2Z" transform="translate(-605.82 -460.21)"/><path class="cls-2" d="M984.16,503a82.23,82.23,0,0,0,8,2.26c6.16,1.4,9,1.29,12.15,3.5a14.27,14.27,0,0,1,4.12,4.64,20.59,20.59,0,0,0-6.59-4.43c-3.4-1.4-5.44-1.1-9.47-2.26A32.57,32.57,0,0,1,984.16,503Z" transform="translate(-605.82 -460.21)"/><path class="cls-2" d="M974.79,500.05c6.72-1.58,15.56-2.48,24.71.62,14.16,4.8,22.34,16.89,22.34,16.89a46.25,46.25,0,0,0-15.24-11.84,53.85,53.85,0,0,0-14-4.53A66.84,66.84,0,0,0,974.79,500.05Z" transform="translate(-605.82 -460.21)"/><path class="cls-2" d="M965.51,498.13c0-.11,8-3.88,19.06-4.11a49.58,49.58,0,0,1,10.92,1c1.89.39,3.78.91,12.34,4.31s9.53,4,14.07,5.67a126.26,126.26,0,0,0,12.42,3.91c8.4,2.11,14.87,2.44,23.36,2.83a198.91,198.91,0,0,0,23.16-.29,133,133,0,0,1-27.66,2.25,101.92,101.92,0,0,1-15.34-1.57,103.38,103.38,0,0,1-16.33-4.2c-4.37-1.55-3.55-1.63-16.42-7.13-7.38-3.16-9.9-4.1-13.48-4.79a48.17,48.17,0,0,0-10.85-.79A51.15,51.15,0,0,0,965.51,498.13Z" transform="translate(-605.82 -460.21)"/><path class="cls-2" d="M998.74,493.14a50,50,0,0,1,15.38,4.44c1.42.68,1.44.77,3.16,1.59a73,73,0,0,0,15.25,5.18,89,89,0,0,0,12.46,1.73c3.77.36,8.89.74,15,.84a98.34,98.34,0,0,1-21.7-.29,69.32,69.32,0,0,1-15.83-3.52c-2.72-1-3.89-1.6-8.72-3.72C1009.62,497.56,1004.56,495.42,998.74,493.14Z" transform="translate(-605.82 -460.21)"/><path class="cls-2" d="M969.22,490.41c0-.42,20.84-3.4,41.35-1.18a117.11,117.11,0,0,1,14.48,2.56c9,2.11,13.6,4.16,21.92,6.92a237.33,237.33,0,0,0,23.51,6.45,188.34,188.34,0,0,0,39.29,3.72c7.33-.06,12.71-.53,18.77-2.93,3.54-1.41,10-4.07,15-10.76a28.45,28.45,0,0,0,5.48-13.78,24.47,24.47,0,0,0-1.57-11,8,8,0,0,0-2.54-4,5.71,5.71,0,0,0-5-1.27,5.45,5.45,0,0,0-3.33,3.32,6,6,0,0,0,.1,4.21,6.92,6.92,0,0,0,1.76,2.54,10.19,10.19,0,0,0,5.08,2.64,9.62,9.62,0,0,1-4.1-.3,8.14,8.14,0,0,1-5.18-3.91,8,8,0,0,1-.2-6.45,8.55,8.55,0,0,1,4.69-4.69,9.07,9.07,0,0,1,6.94.31,11.37,11.37,0,0,1,5.23,4.64,16.49,16.49,0,0,1,2.27,6.92,31.48,31.48,0,0,1-1.54,14.52,33.13,33.13,0,0,1-5.37,9.78,35.81,35.81,0,0,1-9.29,8,40.34,40.34,0,0,1-13.48,5c-5.12,1.09-8.8,1.09-15.84,1.08a134.33,134.33,0,0,1-16.22-1c-5.09-.62-8.74-1.39-16-2.93s-11.46-2.42-17.11-4c-3.79-1.07-3.34-1.08-20.42-6.74-7.53-2.5-9.67-3.18-12.91-4a117.45,117.45,0,0,0-13.78-2.74,106,106,0,0,0-10.85-.87C982.75,489.78,969.25,490.73,969.22,490.41Z" transform="translate(-605.82 -460.21)"/><path class="cls-2" d="M990,486.76c0-.23,8.29-1.65,18.76-1.88a72.92,72.92,0,0,1,13.34.5,75.3,75.3,0,0,1,16.49,4.54c3.48,1.32,2.75,1.27,9,3.85,6.91,2.86,10.46,4.32,15.3,5.63,4.61,1.25,7.78,2.08,12.25,2.07a40.23,40.23,0,0,0,10.37-1.48,55.81,55.81,0,0,0,8.59-3.35c.1.19-4.69,3.77-11.55,5.43a34.68,34.68,0,0,1-8.69.89c-4.58,0-8.88-.8-16.1-2.67-4.79-1.24-5.2-1.67-16.2-5.43-9.31-3.19-14.07-4.8-18.86-5.93a94.75,94.75,0,0,0-16.1-2.57C996.64,485.7,990,487,990,486.76Z" transform="translate(-605.82 -460.21)"/><path class="cls-2" d="M1044.5,487.75c-.18.37,5.68,4.16,13.34,7a44.47,44.47,0,0,0,8,2.37,35.71,35.71,0,0,0,16.88-.49c5.73-1.66,9.46-4.5,14.23-8.1a36,36,0,0,0,6-5.34,71,71,0,0,1-9.58,6.42,47.17,47.17,0,0,1-9.58,3.76,49.51,49.51,0,0,1-20.74.89C1051.8,492.4,1044.71,487.34,1044.5,487.75Z" transform="translate(-605.82 -460.21)"/><path class="cls-2" d="M1045,486c-.18-.37,5.68-4.16,13.34-7a44.47,44.47,0,0,1,8-2.37,35.71,35.71,0,0,1,16.88.49c5.72,1.66,9.46,4.49,14.22,8.1a37.09,37.09,0,0,1,6,5.33c-.12.15-3.79-3.37-9.58-6.41a47.7,47.7,0,0,0-9.58-3.76,49.51,49.51,0,0,0-20.74-.89C1052.3,481.36,1045.21,486.42,1045,486Z" transform="translate(-605.82 -460.21)"/><path class="cls-2" d="M1065.15,491.5a28.24,28.24,0,0,0,5.72-.59c1.05-.22,1.29-.34,3.26-.79a28.94,28.94,0,0,1,4.74-.89,11.73,11.73,0,0,1,4.84.89,50.78,50.78,0,0,0-6.61.89c-2.15.42-2.61.66-4.71,1a21.73,21.73,0,0,1-6.75.56,16.57,16.57,0,0,1-5.83-1.88Z" transform="translate(-605.82 -460.21)"/><path class="cls-2" d="M1058.43,488.44c3-.35,5.38-.71,7.11-1,4.15-.66,5.14-1,7.8-1.18a32.42,32.42,0,0,1,6.92,0,28.11,28.11,0,0,1,7.8,2.07,18.43,18.43,0,0,0-8.69-4.35,18.16,18.16,0,0,0-7.31.1,23.12,23.12,0,0,0-4.15,1.48A52.25,52.25,0,0,1,1058.43,488.44Z" transform="translate(-605.82 -460.21)"/><path class="cls-2" d="M1127.36,514a11.78,11.78,0,0,0,4.55,3c3.21,1.12,6,.37,9-.3,4.14-.93,8.41-1.22,12.55-2.17,7-1.62,12.38-2.14,21.82-3.06a177.23,177.23,0,0,1,23.61-1,136.19,136.19,0,0,1,18.66,1.58c8.29,1.32,10.79,2.58,19.56,4.05a142.22,142.22,0,0,0,16,1.78,88.43,88.43,0,0,1-11.95-2.27c-4.43-1.16-6.44-2.06-10.27-3.26a104.86,104.86,0,0,0-17-3.75,133.25,133.25,0,0,0-21.23-1.39,155.67,155.67,0,0,0-15.81,1.09,171.08,171.08,0,0,0-17.18,3c-7.64,1.73-11.26,2.67-11.26,2.67-4.89,1.27-7.59,2.13-11.36,2a38.65,38.65,0,0,1-6.32-.88C1129.35,514.68,1128.21,514.31,1127.36,514Z" transform="translate(-605.82 -460.21)"/><path class="cls-2" d="M1152.35,507.2l13.14-1.08c13.85-1.15,14.89-1.28,17.77-1.39a125.79,125.79,0,0,1,20,.5,110.4,110.4,0,0,1,17.48,3.16,90.65,90.65,0,0,0,9.09,2.37,48.14,48.14,0,0,0,13.63.39,67.31,67.31,0,0,1-7.31-1,79.51,79.51,0,0,1-11.86-3.43c-7.43-2.45-13.54-3.06-19.74-3.68a125.37,125.37,0,0,0-16.1-.5,160.43,160.43,0,0,0-17.09,1.58C1166.37,504.78,1159.91,505.73,1152.35,507.2Z" transform="translate(-605.82 -460.21)"/><path class="cls-2" d="M1204.69,528.73a28.92,28.92,0,0,0,6.23,6.42,32.26,32.26,0,0,0,9.28,4.74c6.35,2.1,12.37,2.13,12.44,1.68s-4.69-.67-11.16-3.46A38.26,38.26,0,0,1,1207.16,528a31.51,31.51,0,0,1-5-7.8,29.38,29.38,0,0,1-2.18-7.61A28.31,28.31,0,0,0,1204.69,528.73Z" transform="translate(-605.82 -460.21)"/><path class="cls-2" d="M1201.53,514.71a44.78,44.78,0,0,0,3.36,4.54,56.64,56.64,0,0,0,6.52,6.42c.84.74,2,1.73,3.06,2.57a35.47,35.47,0,0,0,11.46,5.73c-4.27-2.52-7.72-4.87-10.27-6.72-1.76-1.27-3.72-2.69-6.13-4.74A82,82,0,0,1,1201.53,514.71Z" transform="translate(-605.82 -460.21)"/><path class="cls-2" d="M1208,515.8a11.53,11.53,0,0,0,9.19,6.91,18.27,18.27,0,0,0-4.49-4.54A18.07,18.07,0,0,0,1208,515.8Z" transform="translate(-605.82 -460.21)"/><path class="cls-2" d="M1213.73,516.39a16.27,16.27,0,0,1,8.3.79c9.69,3.69,11.57,16,11.75,17.38a24.56,24.56,0,0,1-.65,9.7,52.42,52.42,0,0,0-.83-6.15c-1-5.09-2.3-11.38-7-16.49a16.27,16.27,0,0,0-5.44-4A14.8,14.8,0,0,0,1213.73,516.39Z" transform="translate(-605.82 -460.21)"/><path class="cls-2" d="M1169.73,500.1a79.08,79.08,0,0,1,15.61-4.15,80.17,80.17,0,0,1,27.09.33,82,82,0,0,1,19,6,84.72,84.72,0,0,1,12.45,7,94.11,94.11,0,0,0-17.91-8,91.43,91.43,0,0,0-28-4.59,116.34,116.34,0,0,0-13.76,1C1178.35,498.38,1173.41,499.31,1169.73,500.1Z" transform="translate(-605.82 -460.21)"/><path class="cls-2" d="M1237.87,519a14.12,14.12,0,0,1,7.43,3.6,14.53,14.53,0,0,1,4.36,10.27A27.72,27.72,0,0,0,1237.87,519Z" transform="translate(-605.82 -460.21)"/><path class="cls-2" d="M1250.64,520.79a14,14,0,0,1,7.93,2.27,14.59,14.59,0,0,1,6.06,9.37,27.8,27.8,0,0,0-14-11.64Z" transform="translate(-605.82 -460.21)"/><path class="cls-2" d="M1245.78,521.23a20.28,20.28,0,0,1,9.26,7.44,21,21,0,0,1,2.84,15.81,40.15,40.15,0,0,0-12.1-23.25Z" transform="translate(-605.82 -460.21)"/><path class="cls-2" d="M1226.08,484.92a38.92,38.92,0,0,1,3.82-2.08c1.31-.62,2.56-1.12,3.71-1.53a3.24,3.24,0,0,0-2.07-1.74C1229.69,479.2,1227.17,481.22,1226.08,484.92Z" transform="translate(-605.82 -460.21)"/><path class="cls-2" d="M1220.51,483.94c0-1-.12-5.22,2.94-8.19a11.22,11.22,0,0,1,6.67-2.84c3.36-.4,4,.87,7.1.26a14.76,14.76,0,0,0,5.67-2.67,20,20,0,0,0,4.26-3.93,13.07,13.07,0,0,1-3.93,2.19,17.29,17.29,0,0,1-5.79.76c-2.64.05-2.78-.25-5.13-.22-3,0-4.6.06-6.33.88-3.62,1.71-4.93,5.62-5.25,6.55A12.75,12.75,0,0,0,1220.51,483.94Z" transform="translate(-605.82 -460.21)"/><path class="cls-2" d="M1150.84,501.41c0,.2,2.67.55,5.78.22a26.07,26.07,0,0,0,7.54-2.08c7.54-3.12,13.21-5.79,13.21-5.79,7.54-3.54,8.45-4,10.81-4.69a42,42,0,0,1,9.5-1.53,53.14,53.14,0,0,1,10.7.76c3.11.45,2.91.59,7.32,1.31a80.85,80.85,0,0,0,10.81,1.31c3.56.14,5.84.22,8.85-.54a17,17,0,0,0,6.44-2.84c1.73-1.3,2.68-2.65,4.59-5.35s3.37-5.32,4.26-6.88c1.42-2.51,1.76-3.34,2.94-4.59a12.51,12.51,0,0,1,4.05-3,17.49,17.49,0,0,1,4.8-1.2,9.4,9.4,0,0,0-5.57.44c-.79.3-2.92,1.22-7.75,7.86-2.81,3.86-2.56,4.19-4.48,6.34a19.07,19.07,0,0,1-6.88,5.46c-1,.41-2.81,1-8.08,1a74.52,74.52,0,0,1-12.12-1.2c-7.43-1.24-8.41-2-13.73-2.46a32.91,32.91,0,0,0-8.47,0c-2.95.44-5.85,1.71-11.55,4.23-3.69,1.64-6.3,2.8-9.82,4.7-3.32,1.79-4.62,2.71-8.3,4.48a40,40,0,0,1-6.23,2.62C1154.55,501.47,1150.83,501.17,1150.84,501.41Z" transform="translate(-605.82 -460.21)"/><path class="cls-2" d="M1258.51,499.22a7.91,7.91,0,0,1-2.29,4.81,7.74,7.74,0,0,1-3.61,2,5.26,5.26,0,0,0,4.37.22,4.42,4.42,0,0,0,2.4-2.29A4.65,4.65,0,0,0,1258.51,499.22Z" transform="translate(-605.82 -460.21)"/><path class="cls-2" d="M1268.86,499.22a12.38,12.38,0,0,1-4.53,7,12,12,0,0,1-6,2.29,7.82,7.82,0,0,0,5.81,0,8,8,0,0,0,4.21-4.28A8.51,8.51,0,0,0,1268.86,499.22Z" transform="translate(-605.82 -460.21)"/><path class="cls-2" d="M1274.91,495.72a17.15,17.15,0,0,1-4.73,10.58,16.9,16.9,0,0,1-7.74,4.48,10.88,10.88,0,0,0,8-1.16,10.76,10.76,0,0,0,4.47-5.52A12.08,12.08,0,0,0,1274.91,495.72Z" transform="translate(-605.82 -460.21)"/><path class="cls-2" d="M1281,497.23a21.65,21.65,0,0,1-5.41,13.57,21.28,21.28,0,0,1-9.51,6,12.73,12.73,0,0,0,15.13-8.41A15.7,15.7,0,0,0,1281,497.23Z" transform="translate(-605.82 -460.21)"/><path class="cls-2" d="M1182.72,493.76l7.43-1.42c3.46-.65,4.06-.76,4.91-.87a37,37,0,0,1,9.07.11,68.67,68.67,0,0,1,11.46,2.29,97.12,97.12,0,0,1,11,3.72c12.1,4.93,21.19,11.91,26.65,16.16,5.15,4,5.56,4.85,14.74,12.12,5.47,4.33,8.49,6.53,12.89,8.63,7.54,3.59,12.27,3.57,14,3.49,2.55-.11,6-.31,9.07-2.84a10.47,10.47,0,0,0,3.93-7c.07-.85.35-4.41-2.19-6.44-.24-.19-2.66-2.07-5.13-1-2.11.92-2.76,3.35-2.73,4.91,0,2.21,1.51,3.92,1.75,3.82s-.84-2-.22-4.26a3.59,3.59,0,0,1,1.75-2.51,3.24,3.24,0,0,1,3.16.55c1.76,1.38,1.77,4.52.77,6.55-1.36,2.75-4.6,3.54-6.33,3.93-2.59.59-7.38,1-16.39-3.38-2.15-1.06-4.68-2.45-14.52-9.72-8.78-6.49-9.3-7.25-14.74-11a146.44,146.44,0,0,0-14.2-9c-5.95-3.25-10.86-5.94-18-8a65.28,65.28,0,0,0-17-2.51A61.87,61.87,0,0,0,1182.72,493.76Z" transform="translate(-605.82 -460.21)"/><path class="cls-2" d="M1284.06,537.88a3.72,3.72,0,0,1,2,0,3.92,3.92,0,0,1,1.75,1.2c1.29,1.46,3.06,2.39,4.58,3.61,3.08,2.46,7.66,2.34,9.5,2.29,2.08-.06,7.17-.19,11.14-4,3.73-3.62,4.16-8.28,4.37-10.59a19.52,19.52,0,0,0-4-14,14.27,14.27,0,0,0-7.86-5.35,12.86,12.86,0,0,0-10.16,1.85,12,12,0,0,0-5.13,10,10.83,10.83,0,0,0,1.64,5.24c1.62,2.56,4.09,3.9,4.25,3.72s-2.31-1.69-3.49-4.81a10.81,10.81,0,0,1,.11-7.43,10.2,10.2,0,0,1,5.68-5.56c4.41-1.61,8.37.8,9.39,1.41,5.49,3.34,6.34,9.79,6.55,11.36.27,2.06.93,7-2.29,10.92-2.89,3.5-7.21,4.11-9.83,4.48a13.52,13.52,0,0,1-6.77-.33c-2.71-.94-2.81-2.18-6.44-3.93-1.3-.62-5.42-2.6-6.77-1.2a2.39,2.39,0,0,0-.39,2.05Z" transform="translate(-605.82 -460.21)"/><path class="cls-2" d="M899.75,527c-16.1,6-26.47,5-32.28,3.55-2.65-.66-8.5-2.44-9.14-2.64-10.12-3.09-12.35-4.33-18.68-6.19-10.8-3.17-18-3.6-18-3.86s12.68,0,28.13,4c11,2.81,12.69,4.69,20.51,6.19A68.77,68.77,0,0,0,899.75,527Z" transform="translate(-605.82 -460.21)"/><path class="cls-2" d="M868.18,534.28a49,49,0,0,0-33.92-7.62A175.05,175.05,0,0,1,853.15,530C858.59,531.3,863.61,532.76,868.18,534.28Z" transform="translate(-605.82 -460.21)"/><path class="cls-2" d="M850.2,542.82A18.6,18.6,0,0,1,844,553.23c-7.68,6.33-17.53,3.29-18.28,3a27.73,27.73,0,0,0,15.42-4.14A27.44,27.44,0,0,0,850.2,542.82Z" transform="translate(-605.82 -460.21)"/><path class="cls-2" d="M844.42,545.45a10.18,10.18,0,0,0-14.73,6.8,31.81,31.81,0,0,1,14.73-6.8Z" transform="translate(-605.82 -460.21)"/><path class="cls-2" d="M848.28,542.61c-2.06-1-9.14-4-16.55-1.22-9.94,3.71-13.43,15.17-12.9,15.53s4.62-9.15,14.52-13.1A27.37,27.37,0,0,1,848.28,542.61Z" transform="translate(-605.82 -460.21)"/><path class="cls-2" d="M767.54,462.06c-2.11.85-9.13,4-12.15,11.3-4,9.8,2,20.16,2.61,20s-3.56-9.62.28-19.55A27.34,27.34,0,0,1,767.54,462.06Z" transform="translate(-605.82 -460.21)"/><path class="cls-2" d="M769.87,465.54c-1.83,1.35-7.84,6.14-8.93,14-1.45,10.5,7,19,7.55,18.73s-5.86-8.42-4.63-19A27.39,27.39,0,0,1,769.87,465.54Z" transform="translate(-605.82 -460.21)"/><path class="cls-2" d="M756.13,466.61c-1.32.76-5.69,3.49-7,8.63-1.76,6.88,3.2,13.19,3.6,13s-3.26-6-1.63-13A18.33,18.33,0,0,1,756.13,466.61Z" transform="translate(-605.82 -460.21)"/><path class="cls-2" d="M748.33,469.54a10.84,10.84,0,0,0-5,6.45c-1.19,5.09,2.55,9.66,2.85,9.54s-2.49-4.4-1.4-9.54A13.44,13.44,0,0,1,748.33,469.54Z" transform="translate(-605.82 -460.21)"/><path class="cls-2" d="M843.1,538.24c-11.77-4.43-20.55-7.82-26.63-10.19-3.79-1.48-8.68-3.4-15.51-5.65a126.18,126.18,0,0,0-12.08-3.66c-6.92-1.47-22.85-4.86-37.47,3a30.39,30.39,0,0,0-12,10.36c-1.59,2.45-6.93,10.69-3.56,19,.49,1.19,2.45,6.42,7.42,8.23,7,2.56,16.28-3.1,18.68-10.66.24-.77,2.31-7.69-2.13-12.8a12.68,12.68,0,0,0-7.11-4,13.48,13.48,0,0,1,5.08,4.27c.61.87,4.11,6,1.72,11.88a12,12,0,0,1-10,7.31c-.69.05-6.21.42-9.14-3.35-3.5-4.52-.48-11.32.71-14a25.44,25.44,0,0,1,7.62-9.44c2.32-1.83,8-5.75,20-7.21a73.86,73.86,0,0,1,25.08,1.42A296.89,296.89,0,0,1,843.1,538.24Z" transform="translate(-605.82 -460.21)"/><path class="cls-2" d="M795.07,528.09a13,13,0,0,0-19.7-1.32c-5,4.91-3.87,11.65-3.75,12.28A15.25,15.25,0,0,1,781,526.56C788.18,523.64,794.53,527.73,795.07,528.09Z" transform="translate(-605.82 -460.21)"/><path class="cls-2" d="M801.87,531.4a13,13,0,0,0-19.69-1.32c-4.95,4.91-3.87,11.65-3.76,12.29a15.23,15.23,0,0,1,9.34-12.49C795,527,801.34,531,801.87,531.4Z" transform="translate(-605.82 -460.21)"/><path class="cls-2" d="M814.26,533.67a13,13,0,0,0-19.7-1.32c-4.95,4.91-3.87,11.65-3.75,12.29a15.23,15.23,0,0,1,9.34-12.49C807.37,529.23,813.73,533.31,814.26,533.67Z" transform="translate(-605.82 -460.21)"/><path class="cls-2" d="M960.88,504.63s-1.49,1.14-3.3,2.81c-4.2,3.86-6.36,7.2-9.09,11a115.72,115.72,0,0,1-8.11,10.45c-5.93,6.35-13,8.81-18.49,10.57-19,6.14-36.46,2.59-36.45,2.43a66.06,66.06,0,0,0,24.77-.91c3.21-.72,18.1-4.26,27.21-13.1.62-.59,3.63-3.56,7.32-7.61,3.86-4.24,4-4.74,6.49-7.31A73.31,73.31,0,0,1,960.88,504.63Z" transform="translate(-605.82 -460.21)"/><path class="cls-2" d="M961.24,501.08s-1.46,1.21-2.55,2.17a72,72,0,0,0-10,10.92A77.85,77.85,0,0,1,935.39,528a56.06,56.06,0,0,1-18.07,9.14c-9.39,2.79-17.32,2.45-17.36,2.13s7.67-.71,18.17-4.36A57.39,57.39,0,0,0,929,530a60.45,60.45,0,0,0,9.24-6.9c1.56-1.38,3.43-3.27,7.1-7,5.63-5.72,5.82-6.13,8.45-8.59C957.71,503.84,961.24,501.07,961.24,501.08Z" transform="translate(-605.82 -460.21)"/><path class="cls-2" d="M960.68,499.86a124.57,124.57,0,0,1-45.29,31.07,121.62,121.62,0,0,1-50.06,8.53c-9.08-.44-22.41-1.22-37.56-8.63a84.52,84.52,0,0,1-23.66-17.26,114.42,114.42,0,0,0,44.37,20c29.38,6.17,52.81-1.34,62.24-4.37A133.81,133.81,0,0,0,960.68,499.86Z" transform="translate(-605.82 -460.21)"/><path class="cls-2" d="M956.71,497.79a92.64,92.64,0,0,1-26.26,16.67c-15.27,6.37-28.43,6.93-42.52,7.52a191.74,191.74,0,0,1-35.62-1.85,138.61,138.61,0,0,0,43.34,4.42c10.5-.6,21.35-1.32,34.08-7A80.2,80.2,0,0,0,956.71,497.79Z" transform="translate(-605.82 -460.21)"/><path class="cls-2" d="M939.62,502.63c-3.4,1.14-6.19,1.84-8,2.26-6.16,1.4-9,1.28-12.15,3.5a14,14,0,0,0-4.12,4.63,20.36,20.36,0,0,1,6.59-4.42c3.4-1.41,5.43-1.1,9.47-2.27A32.83,32.83,0,0,0,939.62,502.63Z" transform="translate(-605.82 -460.21)"/><path class="cls-2" d="M949,499.64c-6.71-1.59-15.56-2.48-24.7.62-14.16,4.79-22.35,16.88-22.35,16.88a46.39,46.39,0,0,1,15.24-11.84,54.49,54.49,0,0,1,14-4.53A66.76,66.76,0,0,1,949,499.64Z" transform="translate(-605.82 -460.21)"/><path class="cls-2" d="M958.27,497.71a48.11,48.11,0,0,0-19.06-4.1,49.13,49.13,0,0,0-10.93,1c-1.88.39-3.77.91-12.33,4.31s-9.53,4-14.08,5.66a124,124,0,0,1-12.41,3.91c-8.4,2.11-14.88,2.45-23.36,2.84a197.16,197.16,0,0,1-23.17-.3,131.67,131.67,0,0,0,27.66,2.25,101.21,101.21,0,0,0,15.35-1.56,104,104,0,0,0,16.32-4.2c4.37-1.55,3.55-1.63,16.42-7.14,7.38-3.16,9.9-4.1,13.49-4.79a49,49,0,0,1,10.85-.78A51.36,51.36,0,0,1,958.27,497.71Z" transform="translate(-605.82 -460.21)"/><path class="cls-2" d="M925,492.73a49.82,49.82,0,0,0-15.37,4.44c-1.43.68-1.44.77-3.16,1.59a73.61,73.61,0,0,1-15.25,5.18,92.21,92.21,0,0,1-12.47,1.73c-3.76.36-8.88.73-15,.84a99,99,0,0,0,21.7-.29,70.42,70.42,0,0,0,15.83-3.52c2.72-1,3.89-1.61,8.72-3.73C914.16,497.14,919.21,495,925,492.73Z" transform="translate(-605.82 -460.21)"/><path class="cls-2" d="M954.55,490c0-.41-20.83-3.39-41.34-1.17a115.41,115.41,0,0,0-14.49,2.56c-9,2.1-13.59,4.16-21.92,6.92a239.42,239.42,0,0,1-23.51,6.45A189.14,189.14,0,0,1,814,508.46c-7.32,0-12.71-.52-18.76-2.93-3.55-1.41-10-4.07-15-10.75A28.34,28.34,0,0,1,774.81,481,24.54,24.54,0,0,1,776.37,470a8,8,0,0,1,2.55-4,5.68,5.68,0,0,1,5-1.27,5.4,5.4,0,0,1,3.32,3.32,6,6,0,0,1-.09,4.2,7,7,0,0,1-1.76,2.54,10.17,10.17,0,0,1-5.09,2.64,9.62,9.62,0,0,0,4.11-.29,8.2,8.2,0,0,0,5.18-3.91,7.94,7.94,0,0,0,.19-6.45,8.52,8.52,0,0,0-4.69-4.69,9,9,0,0,0-6.93.31,11.31,11.31,0,0,0-5.23,4.64,16.43,16.43,0,0,0-2.28,6.91,31.81,31.81,0,0,0,1.54,14.53,33.05,33.05,0,0,0,5.38,9.77,35.66,35.66,0,0,0,9.28,8,40.61,40.61,0,0,0,13.49,5c5.11,1.08,8.8,1.08,15.83,1.08a136.73,136.73,0,0,0,16.23-1c5.09-.63,8.73-1.4,16-2.93s11.46-2.42,17.1-4c3.8-1.07,3.35-1.08,20.43-6.75,7.53-2.49,9.66-3.17,12.9-4a118.27,118.27,0,0,1,13.78-2.74c4.86-.64,8.6-.8,10.85-.88C941,489.37,954.53,490.32,954.55,490Z" transform="translate(-605.82 -460.21)"/><path class="cls-2" d="M933.79,486.35c0-.23-8.29-1.65-18.77-1.88a72.8,72.8,0,0,0-13.33.49,74.5,74.5,0,0,0-16.49,4.55c-3.49,1.32-2.76,1.27-9,3.85-6.91,2.86-10.47,4.32-15.31,5.63-4.6,1.24-7.78,2.08-12.24,2.07a40.13,40.13,0,0,1-10.37-1.48,55.54,55.54,0,0,1-8.6-3.36c-.1.2,4.69,3.77,11.56,5.43a34.17,34.17,0,0,0,8.69.89c4.57,0,8.88-.8,16.1-2.66,4.79-1.24,5.2-1.68,16.19-5.44,9.32-3.18,14.07-4.79,18.87-5.92A94.77,94.77,0,0,1,917.19,486C927.13,485.29,933.76,486.59,933.79,486.35Z" transform="translate(-605.82 -460.21)"/><path class="cls-2" d="M879.27,487.33c.18.37-5.67,4.17-13.33,7a45.25,45.25,0,0,1-8,2.38,35.79,35.79,0,0,1-16.89-.5c-5.72-1.66-9.46-4.49-14.22-8.1a36.55,36.55,0,0,1-6-5.33,72.09,72.09,0,0,0,9.58,6.42A48.54,48.54,0,0,0,840,493a49.37,49.37,0,0,0,20.74.89C872,492,879.07,486.92,879.27,487.33Z" transform="translate(-605.82 -460.21)"/><path class="cls-2" d="M878.77,485.6c.19-.37-5.67-4.17-13.33-7a44.47,44.47,0,0,0-8-2.37,35.62,35.62,0,0,0-16.89.49c-5.72,1.66-9.46,4.49-14.22,8.1a36.73,36.73,0,0,0-6,5.33,71.27,71.27,0,0,1,9.58-6.42,48,48,0,0,1,9.58-3.75,49.34,49.34,0,0,1,20.74-.89C871.48,481,878.57,486,878.77,485.6Z" transform="translate(-605.82 -460.21)"/><path class="cls-2" d="M858.63,491.09a27.52,27.52,0,0,1-5.73-.6c-1-.22-1.29-.34-3.26-.79a29.91,29.91,0,0,0-4.74-.89,11.75,11.75,0,0,0-4.84.89,54.64,54.64,0,0,1,6.62.89c2.14.43,2.61.66,4.7,1a21.76,21.76,0,0,0,6.76.55A16.47,16.47,0,0,0,864,490.3Z" transform="translate(-605.82 -460.21)"/><path class="cls-2" d="M865.35,488c-3-.35-5.38-.71-7.12-1-4.14-.66-5.14-1-7.8-1.19a33,33,0,0,0-6.91,0,28.55,28.55,0,0,0-7.8,2.08,18,18,0,0,1,16-4.25,22,22,0,0,1,4.14,1.48A51.72,51.72,0,0,0,865.35,488Z" transform="translate(-605.82 -460.21)"/><path class="cls-2" d="M796.41,513.6a11.74,11.74,0,0,1-4.54,3c-3.22,1.11-6,.36-9-.3-4.14-.93-8.41-1.22-12.54-2.17-7-1.63-12.39-2.15-21.83-3.06a175.46,175.46,0,0,0-23.6-1,134.73,134.73,0,0,0-18.67,1.58c-8.28,1.32-10.79,2.57-19.55,4a142,142,0,0,1-16,1.77,86.88,86.88,0,0,0,11.95-2.27c4.42-1.16,6.43-2,10.27-3.26a107.08,107.08,0,0,1,17-3.75,133.75,133.75,0,0,1,21.23-1.38,152.23,152.23,0,0,1,15.8,1.09,172,172,0,0,1,17.19,3c7.63,1.72,11.25,2.66,11.26,2.66,4.88,1.28,7.59,2.14,11.35,2a38.07,38.07,0,0,0,6.32-.89A32.63,32.63,0,0,0,796.41,513.6Z" transform="translate(-605.82 -460.21)"/><path class="cls-2" d="M771.42,506.79l-13.13-1.09c-13.85-1.14-14.89-1.27-17.78-1.38a126.81,126.81,0,0,0-20,.49A110.79,110.79,0,0,0,703.08,508a87.88,87.88,0,0,1-9.08,2.37,48.22,48.22,0,0,1-13.63.4,65.66,65.66,0,0,0,7.31-1,80.42,80.42,0,0,0,11.86-3.42c7.42-2.45,13.53-3.06,19.74-3.69a126.25,126.25,0,0,1,16.1-.49,157.69,157.69,0,0,1,17.08,1.58C757.4,504.36,763.86,505.32,771.42,506.79Z" transform="translate(-605.82 -460.21)"/><path class="cls-2" d="M719.08,528.32a28.74,28.74,0,0,1-6.22,6.42,32.26,32.26,0,0,1-9.28,4.74c-6.35,2.1-12.37,2.13-12.45,1.68s4.69-.67,11.16-3.46a38.18,38.18,0,0,0,14.32-10.07,31.88,31.88,0,0,0,5-7.8,29.4,29.4,0,0,0,2.17-7.61A28.15,28.15,0,0,1,719.08,528.32Z" transform="translate(-605.82 -460.21)"/><path class="cls-2" d="M722.24,514.29a44.72,44.72,0,0,1-3.36,4.55,57.43,57.43,0,0,1-6.51,6.42c-.84.73-2,1.72-3.07,2.56a35.4,35.4,0,0,1-11.45,5.73c4.27-2.51,7.72-4.87,10.27-6.71,1.76-1.27,3.71-2.69,6.12-4.74A80.78,80.78,0,0,0,722.24,514.29Z" transform="translate(-605.82 -460.21)"/><path class="cls-2" d="M715.82,515.38a11.49,11.49,0,0,1-9.18,6.91,18.08,18.08,0,0,1,4.49-4.53A18.26,18.26,0,0,1,715.82,515.38Z" transform="translate(-605.82 -460.21)"/><path class="cls-2" d="M710.05,516a16.25,16.25,0,0,0-8.3.79c-9.69,3.69-11.57,16-11.75,17.39a24.63,24.63,0,0,0,.64,9.7,54.59,54.59,0,0,1,.84-6.15c1-5.1,2.3-11.39,7-16.49a16.28,16.28,0,0,1,5.43-4.05A14.89,14.89,0,0,1,710.05,516Z" transform="translate(-605.82 -460.21)"/><path class="cls-2" d="M754.05,499.68a79.82,79.82,0,0,0-42.7-3.82,83.49,83.49,0,0,0-31.45,13,94.61,94.61,0,0,1,17.91-8,91.54,91.54,0,0,1,28-4.58,116.34,116.34,0,0,1,13.76,1C745.42,498,750.37,498.89,754.05,499.68Z" transform="translate(-605.82 -460.21)"/><path class="cls-2" d="M685.91,518.57a14,14,0,0,0-7.43,3.61,14.59,14.59,0,0,0-4.37,10.26,27.91,27.91,0,0,1,11.8-13.87Z" transform="translate(-605.82 -460.21)"/><path class="cls-2" d="M673.14,520.37a14,14,0,0,0-7.93,2.28,14.54,14.54,0,0,0-6.07,9.36,27.88,27.88,0,0,1,14-11.64Z" transform="translate(-605.82 -460.21)"/><path class="cls-2" d="M678,520.82a20.22,20.22,0,0,0-9.27,7.44,21,21,0,0,0-2.84,15.81,40.56,40.56,0,0,1,4-12.36A40,40,0,0,1,678,520.82Z" transform="translate(-605.82 -460.21)"/><path class="cls-5" d="M697.7,484.5a42.54,42.54,0,0,0-3.82-2.07c-1.32-.62-2.56-1.12-3.72-1.53a3.26,3.26,0,0,1,2.08-1.75C694.08,478.78,696.61,480.8,697.7,484.5Z" transform="translate(-605.82 -460.21)"/><path class="cls-2" d="M703.27,483.52c0-1,.11-5.22-2.95-8.19a11.33,11.33,0,0,0-6.66-2.84c-3.36-.4-4,.88-7.11.26a14.76,14.76,0,0,1-5.67-2.66,20.49,20.49,0,0,1-4.26-3.93,13.52,13.52,0,0,0,3.94,2.18,17.24,17.24,0,0,0,5.78.77c2.64.05,2.78-.25,5.14-.22,3,0,4.6.05,6.33.87,3.62,1.72,4.93,5.63,5.24,6.55A12.77,12.77,0,0,1,703.27,483.52Z" transform="translate(-605.82 -460.21)"/><path class="cls-2" d="M772.94,501c0,.21-2.67.55-5.79.22a25.62,25.62,0,0,1-7.53-2.07c-7.54-3.12-13.22-5.79-13.22-5.79-7.53-3.54-8.44-4-10.81-4.7a43.22,43.22,0,0,0-9.5-1.53,53.17,53.17,0,0,0-10.7.77c-3.1.44-2.91.59-7.32,1.31a80.65,80.65,0,0,1-10.81,1.31c-3.55.14-5.83.21-8.84-.55a16.89,16.89,0,0,1-6.45-2.84c-1.72-1.29-2.68-2.64-4.58-5.35a79.94,79.94,0,0,1-4.26-6.88c-1.42-2.5-1.76-3.33-3-4.58a12.44,12.44,0,0,0-4-2.95,17.57,17.57,0,0,0-4.8-1.2,9.32,9.32,0,0,1,5.56.43c.79.3,2.92,1.23,7.76,7.87,2.8,3.85,2.55,4.18,4.48,6.33a18.78,18.78,0,0,0,6.88,5.46c1,.42,2.8,1,8.08,1a74.62,74.62,0,0,0,12.12-1.2c7.42-1.24,8.4-2,13.73-2.45a33.31,33.31,0,0,1,8.46,0c3,.44,5.86,1.71,11.55,4.24,3.7,1.64,6.3,2.8,9.83,4.7,3.32,1.78,4.61,2.7,8.3,4.47a39,39,0,0,0,6.22,2.62C769.22,501.05,773,500.75,772.94,501Z" transform="translate(-605.82 -460.21)"/><path class="cls-2" d="M665.27,498.81a7.81,7.81,0,0,0,2.29,4.8,7.67,7.67,0,0,0,3.6,2,5.32,5.32,0,0,1-4.36.22,4.47,4.47,0,0,1-2.41-2.29A4.63,4.63,0,0,1,665.27,498.81Z" transform="translate(-605.82 -460.21)"/><path class="cls-2" d="M654.92,498.81a12.25,12.25,0,0,0,4.53,6.95,12,12,0,0,0,6,2.3,7.64,7.64,0,0,1-10-4.29A8.39,8.39,0,0,1,654.92,498.81Z" transform="translate(-605.82 -460.21)"/><path class="cls-2" d="M648.86,495.3a17.18,17.18,0,0,0,4.74,10.59,16.81,16.81,0,0,0,7.74,4.47,10.93,10.93,0,0,1-8-1.15,10.72,10.72,0,0,1-4.46-5.52A12.13,12.13,0,0,1,648.86,495.3Z" transform="translate(-605.82 -460.21)"/><path class="cls-2" d="M642.82,496.82a21.66,21.66,0,0,0,5.42,13.56,21.28,21.28,0,0,0,9.51,6A12.75,12.75,0,0,1,642.62,508,15.7,15.7,0,0,1,642.82,496.82Z" transform="translate(-605.82 -460.21)"/><path class="cls-2" d="M741.05,493.35l-7.42-1.42c-3.46-.66-4.06-.77-4.92-.87a36.38,36.38,0,0,0-9.06.11,66.83,66.83,0,0,0-11.47,2.29,97.87,97.87,0,0,0-11,3.71c-12.09,4.93-21.19,11.92-26.64,16.16-5.16,4-5.56,4.86-14.74,12.12-5.47,4.33-8.49,6.54-12.89,8.63-7.54,3.59-12.27,3.57-14,3.5-2.54-.12-6-.32-9.06-2.84a10.46,10.46,0,0,1-3.93-7c-.07-.86-.36-4.41,2.18-6.45.24-.19,2.66-2.06,5.13-1,2.12.93,2.77,3.35,2.73,4.92-.05,2.21-1.5,3.91-1.74,3.82s.84-2,.22-4.26a3.61,3.61,0,0,0-1.75-2.51,3.26,3.26,0,0,0-3.17.54c-1.75,1.39-1.76,4.52-.76,6.56,1.35,2.75,4.59,3.53,6.33,3.93,2.58.58,7.38,1,16.38-3.39,2.15-1,4.69-2.45,14.52-9.72,8.79-6.48,9.31-7.24,14.75-11a147.55,147.55,0,0,1,14.19-8.95c6-3.26,10.87-6,18-8a64.93,64.93,0,0,1,17-2.51A61.57,61.57,0,0,1,741.05,493.35Z" transform="translate(-605.82 -460.21)"/><path class="cls-2" d="M639.71,537.47a3.58,3.58,0,0,0-2,0,3.71,3.71,0,0,0-1.75,1.2c-1.29,1.45-3.07,2.39-4.59,3.6-3.07,2.47-7.65,2.34-9.5,2.3-2.07-.06-7.17-.2-11.14-4.05-3.73-3.62-4.15-8.28-4.36-10.59a19.49,19.49,0,0,1,4-14,14.29,14.29,0,0,1,7.86-5.35,12.84,12.84,0,0,1,10.16,1.86,12,12,0,0,1,5.13,10,10.86,10.86,0,0,1-1.64,5.24c-1.62,2.56-4.09,3.89-4.26,3.71s2.32-1.68,3.5-4.8a10.79,10.79,0,0,0-.11-7.43,10.21,10.21,0,0,0-5.68-5.57c-4.41-1.61-8.37.8-9.39,1.42-5.5,3.34-6.35,9.79-6.56,11.36-.27,2.06-.92,7,2.3,10.92,2.88,3.49,7.21,4.1,9.83,4.47a13.51,13.51,0,0,0,6.77-.32c2.71-1,2.8-2.19,6.44-3.93,1.3-.63,5.42-2.61,6.77-1.21a2.44,2.44,0,0,1,.38,2.06Z" transform="translate(-605.82 -460.21)"/><rect class="cls-2" x="284.06" y="11.7" width="146.13" height="3.52" rx="1"/><rect class="cls-2" x="203.98" y="2.27" width="306.89" height="3.48" rx="1"/></svg>